<svg xmlns:xlink="http://www.w3.org/1999/xlink" xmlns="http://www.w3.org/2000/svg" width="1050" height="600" viewBox="0 0 1050 600">
    <rect x="0" y="0" width="20" height="20" fill="rgb(64,32,32)" transform="translate(20)" />
    <rect x="0" y="0" width="20" height="20" fill="rgb(255,225,200)"  transform="translate(40)" />
    <rect x="0" y="0" width="20" height="20" fill="rgb(64,32,32)" transform="translate(60)" />
    <rect x="0" y="0" width="20" height="20" fill="rgb(255,225,200)"  transform="translate(80)" />
    <rect x="0" y="0" width="20" height="20" fill="rgb(64,32,32)" transform="translate(100)" />
    <rect x="0" y="0" width="20" height="20" fill="rgb(255,225,200)"  transform="translate(120)" />
    <rect x="0" y="0" width="20" height="20" fill="rgb(64,32,32)" transform="translate(140)" />
    <rect x="0" y="0" width="20" height="20" fill="rgb(255,225,200)"  transform="translate(160)" />
    <rect x="0" y="0" width="20" height="20" fill="rgb(255,225,200)" transform="translate(20,20)" />
    <rect x="0" y="0" width="20" height="20" fill="rgb(64,32,32)" transform="translate(40,20)" />
    <rect x="0" y="0" width="20" height="20" fill="rgb(255,225,200)" transform="translate(60,20)" />
    <rect x="0" y="0" width="20" height="20" fill="rgb(64,32,32)" transform="translate(80,20)" />
    <rect x="0" y="0" width="20" height="20" fill="rgb(255,225,200)" transform="translate(100,20)" />
    <rect x="0" y="0" width="20" height="20" fill="rgb(64,32,32)" transform="translate(120,20)" />
    <rect x="0" y="0" width="20" height="20" fill="rgb(255,225,200)" transform="translate(140, 20)" />
    <rect x="0" y="0" width="20" height="20" fill="rgb(64,32,32)" transform="translate(160,20)" />
    <rect x="0" y="0" width="20" height="20" fill="rgb(64,32,32)" transform="translate(20,40)" />
    <rect x="0" y="0" width="20" height="20" fill="rgb(255,225,200)"  transform="translate(40,40)" />
    <rect x="0" y="0" width="20" height="20" fill="rgb(64,32,32)" transform="translate(60,40)" />
    <rect x="0" y="0" width="20" height="20" fill="rgb(255,225,200)"  transform="translate(80,40)" />
    <rect x="0" y="0" width="20" height="20" fill="rgb(64,32,32)" transform="translate(100,40)" />
    <rect x="0" y="0" width="20" height="20" fill="rgb(255,225,200)"  transform="translate(120,40)" />
    <rect x="0" y="0" width="20" height="20" fill="rgb(64,32,32)" transform="translate(140,40)" />
    <rect x="0" y="0" width="20" height="20" fill="rgb(255,225,200)"  transform="translate(160,40)" />
    <rect x="0" y="0" width="20" height="20" fill="rgb(255,225,200)" transform="translate(20,60)" />
    <rect x="0" y="0" width="20" height="20" fill="rgb(64,32,32)" transform="translate(40,60)" />
    <rect x="0" y="0" width="20" height="20" fill="rgb(255,225,200)" transform="translate(60,60)" />
    <rect x="0" y="0" width="20" height="20" fill="rgb(64,32,32)" transform="translate(80,60)" />
    <rect x="0" y="0" width="20" height="20" fill="rgb(255,225,200)" transform="translate(100,60)" />
    <rect x="0" y="0" width="20" height="20" fill="rgb(64,32,32)" transform="translate(120,60)" />
    <rect x="0" y="0" width="20" height="20" fill="rgb(255,225,200)" transform="translate(140,60)" />
    <rect x="0" y="0" width="20" height="20" fill="rgb(64,32,32)" transform="translate(160,60)" />
    <rect x="0" y="0" width="20" height="20" fill="rgb(64,32,32)" transform="translate(20,80)" />
    <rect x="0" y="0" width="20" height="20" fill="rgb(255,225,200)"  transform="translate(40,80)" />
    <rect x="0" y="0" width="20" height="20" fill="rgb(64,32,32)" transform="translate(60,80)" />
    <rect x="0" y="0" width="20" height="20" fill="rgb(255,225,200)"  transform="translate(80,80)" />
    <rect x="0" y="0" width="20" height="20" fill="rgb(64,32,32)" transform="translate(100,80)" />
    <rect x="0" y="0" width="20" height="20" fill="rgb(255,225,200)"  transform="translate(120,80)" />
    <rect x="0" y="0" width="20" height="20" fill="rgb(64,32,32)" transform="translate(140,80)" />
    <rect x="0" y="0" width="20" height="20" fill="rgb(255,225,200)"  transform="translate(160,80)" />
    <rect x="0" y="0" width="20" height="20" fill="rgb(255,225,200)" transform="translate(20,100)" />
    <rect x="0" y="0" width="20" height="20" fill="rgb(64,32,32)" transform="translate(40,100)" />
    <rect x="0" y="0" width="20" height="20" fill="rgb(255,225,200)" transform="translate(60,100)" />
    <rect x="0" y="0" width="20" height="20" fill="rgb(64,32,32)" transform="translate(80,100)" />
    <rect x="0" y="0" width="20" height="20" fill="rgb(255,225,200)" transform="translate(100,100)" />
    <rect x="0" y="0" width="20" height="20" fill="rgb(64,32,32)" transform="translate(120,100)" />
    <rect x="0" y="0" width="20" height="20" fill="rgb(255,225,200)" transform="translate(140, 100)" />
    <rect x="0" y="0" width="20" height="20" fill="rgb(64,32,32)" transform="translate(160,100)" />
    <rect x="0" y="0" width="20" height="20" fill="rgb(64,32,32)" transform="translate(20,120)" />
    <rect x="0" y="0" width="20" height="20" fill="rgb(255,225,200)"  transform="translate(40,120)" />
    <rect x="0" y="0" width="20" height="20" fill="rgb(64,32,32)" transform="translate(60,120)" />
    <rect x="0" y="0" width="20" height="20" fill="rgb(255,225,200)"  transform="translate(80,120)" />
    <rect x="0" y="0" width="20" height="20" fill="rgb(64,32,32)" transform="translate(100,120)" />
    <rect x="0" y="0" width="20" height="20" fill="rgb(255,225,200)"  transform="translate(120,120)" />
    <rect x="0" y="0" width="20" height="20" fill="rgb(64,32,32)" transform="translate(140,120)" />
    <rect x="0" y="0" width="20" height="20" fill="rgb(255,225,200)"  transform="translate(160,120)" />
    <rect x="0" y="0" width="20" height="20" fill="rgb(255,225,200)" transform="translate(20,140)" />
    <rect x="0" y="0" width="20" height="20" fill="rgb(64,32,32)" transform="translate(40,140)" />
    <rect x="0" y="0" width="20" height="20" fill="rgb(255,225,200)" transform="translate(60,140)" />
    <rect x="0" y="0" width="20" height="20" fill="rgb(64,32,32)" transform="translate(80,140)" />
    <rect x="0" y="0" width="20" height="20" fill="rgb(255,225,200)" transform="translate(100,140)" />
    <rect x="0" y="0" width="20" height="20" fill="rgb(64,32,32)" transform="translate(120,140)" />
    <rect x="0" y="0" width="20" height="20" fill="rgb(255,225,200)" transform="translate(140,140)" />
    <rect x="0" y="0" width="20" height="20" fill="rgb(64,32,32)" transform="translate(160,140)" />
</svg>