<?xml version="1.0" standalone="no"?>
<!DOCTYPE svg PUBLIC "-//W3C//DTD SVG 1.1//EN" 
  "http://www.w3.org/Graphics/SVG/1.1/DTD/svg11.dtd">
<svg width="8cm" height="3cm" viewBox="0 0 800 300" version="1.1"
     xmlns="http://www.w3.org/2000/svg" xmlns:xlink="http://www.w3.org/1999/xlink">
  <defs>
    <mask id="Mask" maskUnits="userSpaceOnUse"
          x="0" y="0" width="200" height="200">
      <rect x="0" y="0" width="50" height="50" fill="blue" fill-opacity="0.5"  />
      <rect x="50" y="0" width="50" height="50" fill="blue" fill-opacity="0.5"  />
      <rect x="0" y="50" width="50" height="50" fill="blue" fill-opacity="1.0"  />
      <rect x="50" y="50" width="50" height="50" fill="blue" fill-opacity="1.0"  />
      
      <rect x="0" y="100" width="50" height="50" fill="green" fill-opacity="1.0"  />
      <rect x="50" y="100" width="50" height="50" fill="green" fill-opacity="1.0"  />
      <rect x="0" y="150" width="50" height="50" fill="green" fill-opacity="1.0"  />
      <rect x="50" y="150" width="50" height="50" fill="green" fill-opacity="1.0"  />
      
      <rect x="100" y="0" width="50" height="50" fill="white" fill-opacity="0.0"  />
      <rect x="150" y="0" width="50" height="50" fill="white" fill-opacity="0.0"  />
      <rect x="100" y="50" width="50" height="50" fill="white" fill-opacity="0.0"  />
      <rect x="150" y="50" width="50" height="50" fill="white" fill-opacity="0.0"  />
      
      <rect x="100" y="100" width="50" height="50" fill="white" fill-opacity="1.0"  />
      <rect x="150" y="100" width="50" height="50" fill="white" fill-opacity="0.5"  />
      <rect x="100" y="150" width="50" height="50" fill="white" fill-opacity="1.0"  />
      <rect x="150" y="150" width="50" height="50" fill="white" fill-opacity="0.5"  />
      
    </mask>
  </defs>

  <polygon points="50,0 150,0 150,50 200,50 200,150 150,150 150,200 50,200 50,150 0,150 0,50 50,50" fill="red" mask="url(#Mask)"></polygon>

</svg>

