<?xml version="1.0" standalone="no"?>
<!DOCTYPE svg PUBLIC "-//W3C//DTD SVG 1.1//EN" 
  "http://www.w3.org/Graphics/SVG/1.1/DTD/svg11.dtd">
<svg width="8cm" height="3cm" viewBox="0 0 800 600" version="1.1"
     xmlns="http://www.w3.org/2000/svg" xmlns:xlink="http://www.w3.org/1999/xlink">
  <defs>
    <polygon id="poligono"  points="50,0 150,0 150,50 200,50 200,150 150,150 150,200 50,200 50,150 0,150 0,50 50,50" fill="white" />
    <rect    id="retangulo" width="100" height="100" x="50" y="50" fill="red"/>
    <circle  id="circulo"   cx="100" cy="200" r="50" fill="green" />
    <mask id="mascara" x="0" y="0" width="200" height="200" >
      <use xlink:href="#poligono"/>
      <use xlink:href="#retangulo"/>
      <use xlink:href="#circulo"/>
    </mask>
  </defs>

<g transform="translate(0,50)">
  <use xlink:href="#circulo"   stroke="gray" stroke-dasharray="5 5"/>
  <use xlink:href="#retangulo" stroke="gray" stroke-dasharray="5 5"/>
  <use xlink:href="#poligono"  stroke="gray" stroke-dasharray="5 5" fill-opacity="0"/>
  <text x="100" y="300" font-size="24" text-anchor="middle">Mascara</text>
  
  <rect x="0" y="0" height="200" width="200" fill="blue" transform="translate(250,0)"/>
  <circle cx="100" cy="100" r="100" fill="red"  transform="translate(250,250)" />
  <rect x="0" y="0" height="200" width="200" fill="blue" mask="url(#mascara)" transform="translate(500,0)"/>
  <circle cx="100" cy="100" r="100" fill="red"  mask="url(#mascara)"  transform="translate(500,250)" />
</g>
</svg>

