<?xml version="1.0" encoding="utf-8"?>

<!DOCTYPE svg
  PUBLIC "-//W3C//DTD SVG 1.0//EN" "http://www.w3.org/TR/2001/REC-SVG-20010904/DTD/svg10.dtd">
<svg xmlns="http://www.w3.org/2000/svg" width="100%" height="100%">
   <style>
                text {font-family: calibri, sans-serif}
            </style>
   <rect x="50" y="50" width="800" height="450" fill="white" stroke="gray" stroke-width="1"/>
   <text x="70" y="100" font-size="16">Mercúrio</text>
   <rect x="150" y="80" width="20.47361942594976" height="30" fill="rgb(9, 9, 9)" stroke="black" stroke-width="1"/>
   <text x="190.47361942594975" y="100">4879 km</text>
   <text x="70" y="140" font-size="16">Venus</text>
   <rect x="150" y="120" width="50.7916969730879" height="30" fill="rgb(22, 22, 22)" stroke="black" stroke-width="1"/>
   <text x="220.7916969730879" y="140">12104 km</text>
   <text x="70" y="180" font-size="16">Terra</text>
   <rect x="150" y="160" width="53.52766743132099" height="30" fill="rgb(23, 23, 23)" stroke="black" stroke-width="1"/>
   <text x="223.527667431321" y="180">12756 km</text>
   <text x="70" y="220" font-size="16">Marte</text>
   <rect x="150" y="200" width="28.50948357858222" height="30" fill="rgb(12, 12, 12)" stroke="black" stroke-width="1"/>
   <text x="198.5094835785822" y="220">6794 km</text>
   <text x="70" y="300" font-size="16">Júpiter</text>
   <rect x="150" y="280" width="600" height="30" fill="rgb(255, 255, 255)" stroke="black" stroke-width="1"/>
   <text x="770" y="300">142984 km</text>
   <text x="70" y="340" font-size="16">Saturno</text>
   <rect x="150" y="320" width="505.80204778156997" height="30" fill="rgb(215, 215, 215)" stroke="black" stroke-width="1"/>
   <text x="675.80204778157" y="340">120536 km</text>
   <text x="70" y="380" font-size="16">Urano</text>
   <rect x="150" y="360" width="214.50511945392492" height="30" fill="rgb(91, 91, 91)" stroke="black" stroke-width="1"/>
   <text x="384.5051194539249" y="380">51118 km</text>
   <text x="70" y="420" font-size="16">Netuno</text>
   <rect x="150" y="400" width="207.681978403178" height="30" fill="rgb(88, 88, 88)" stroke="black" stroke-width="1"/>
   <text x="377.681978403178" y="420">49492 km</text>
   <text x="70" y="460" font-size="16">Plutão</text>
   <rect x="150" y="440" width="9.54232641414424" height="30" fill="rgb(4, 4, 4)" stroke="black" stroke-width="1"/>
   <text x="179.54232641414424" y="460">2274 km</text>
</svg>