<?xml version="1.0" standalone="no"?>
<svg viewBox="0 0 1000 1000" xmlns="http://www.w3.org/2000/svg" version="1.1">
    
    <g transform="translate(250,250)">
    <ellipse cx="-100" cy="-100" rx="100" ry="100" 
             stroke-width="1" stroke="black" fill-opacity="0" />
    <ellipse cx="0" cy="0" rx="100" ry="100" 
             stroke-width="1" stroke="black" fill-opacity="0" />
    <path d="M-100,-100 L0,-100 A100,100 0 0,1 -100,0 L-100,-100 z" 
          stroke="red" stroke-opacity=".5" stroke-width="4" fill-opacity=".2"/>
    <text y="-180">
        <tspan>Large Arc Flag = 0</tspan>
        <tspan x="0" dy="20">Sweep Flag = 1</tspan>
    </text>
    </g>
    
    <g transform="translate(250,600)">
    <ellipse cx="-100" cy="-100" rx="100" ry="100" 
             stroke-width="1" stroke="black" fill-opacity="0" />
    <ellipse cx="0" cy="0" rx="100" ry="100" 
             stroke-width="1" stroke="black" fill-opacity="0" />
    <path d="M0,0 L0,-100 A100,100 0 0,0 -100,0 L0,0 z" 
          stroke="red" stroke-opacity=".5" stroke-width="4" fill-opacity=".2"/>
    <text y="-180">
        <tspan>Large Arc Flag = 0</tspan>
        <tspan x="0" dy="20">Sweep Flag = 0</tspan>
    </text>
    </g>
    
        <g transform="translate(600,250)">
    <ellipse cx="-100" cy="-100" rx="100" ry="100" 
             stroke-width="1" stroke="black" fill-opacity="0" />
    <ellipse cx="0" cy="0" rx="100" ry="100" 
             stroke-width="1" stroke="black" fill-opacity="0" />
    <path d="M-100,-100 L0,-100 A100,100 0 1,0 -100,0 L-100,-100 z" 
          stroke="red" stroke-opacity=".5" stroke-width="4" fill-opacity=".2"/>
    <text y="-180">
        <tspan>Large Arc Flag = 1</tspan>
        <tspan x="0" dy="20">Sweep Flag = 0</tspan>
    </text>
    </g>
    
    <g transform="translate(600,600)">
    <ellipse cx="-100" cy="-100" rx="100" ry="100" 
             stroke-width="1" stroke="black" fill-opacity="0" />
    <ellipse cx="0" cy="0" rx="100" ry="100" 
             stroke-width="1" stroke="black" fill-opacity="0" />
    <path d="M0,0 L0,-100 A100,100 0 1,1 -100,0 L0,0 z" 
          stroke="red" stroke-opacity=".5" stroke-width="4" fill-opacity=".2"/>
    <text y="-180">
        <tspan>Large Arc Flag = 1</tspan>
        <tspan x="0" dy="20">Sweep Flag = 1</tspan>
    </text>
    </g>

</svg>