<?xml version="1.0" encoding="UTF-8"?>
<!DOCTYPE svg PUBLIC "-//W3C//DTD SVG 1.0//EN" "http://www.w3.org/TR/2001/REC-SVG-20010904/DTD/svg10.dtd">
<svg xmlns="http://www.w3.org/2000/svg" xmlns:xlink="http://www.w3.org/1999/xlink" width="100%" height="100%">
    <defs>
        <!-- Seta -->
        <marker id="seta" viewBox="0 0 10 10" refX="5" refY="5" orient="auto" markerUnits="strokeWidth">
            <polygon points="0,0 10,5 0,10" />
        </marker>
        
        <!-- Terra -->
        <marker id="terra" viewBox="0 0 10 6" refX="5" refY="0" orient="-90" markerUnits="userSpaceOnUse"
            markerHeight="18" markerWidth="24">
            <polyline points="1,1 9,1" stroke-linecap="round" stroke-width="1" stroke="black"/>
            <polyline points="2.5,3 7.5,3" stroke-linecap="round" stroke-width="1" stroke="black"/>
            <polyline points="4.5,5 5.5,5" stroke-linecap="round" stroke-width="1" stroke="black"/>
        </marker>
        
        <!-- Terminal -->
        <marker id="terminal" viewBox="-1 -1 12 12" refX="5" refY="5" orient="auto" markerUnits="userSpaceOnUse"
                markerHeight="10" markerWidth="10">
            <circle cx="5" cy="5" r="4" stroke="black" fill="white" stroke-width="2" />
        </marker>
        
        <!-- Resistores e capacitores -->
        <symbol id="resistor" viewBox="0 0 40 20">
            <rect width="45" height="20" x="0" y="0" fill="white" />
            <polyline points="0,10 2.5,10 5,1 10,19 15,1 20,19
                                   25,1 30,19 35,1 37.5,10 40,10" 
                      fill-opacity="0" stroke-linecap="round" stroke-width="2" stroke="black"/>
        </symbol>
        <symbol id="capacitor" viewBox="0 0 6 10">
            <rect width="4" height="10" x="0.5" y="0" fill="white" />
            <polyline points="0,1 0,9" stroke-linecap="round" stroke="black" stroke-width="1.5" />
            <polyline points="3.5,1 3.5,9" stroke-linecap="round" stroke="black" stroke-width="1.5" />
        </symbol>
        <symbol id="capEletrolitico" viewBox="0 0 6 10">
            <rect width="6" height="10" x="0" y="0" fill="white" />
            <polyline points="0,1 0,9" stroke-linecap="round" stroke="black" stroke-width="1.5" />
            <rect x="3" y="0.5"  rx=".5" ry=".5" width="2.5" height="9" stroke="black" stroke-width="0.75" fill="white" />
        </symbol>
        
        <!-- Diodos -->
        <symbol id="diodo" viewBox="0 0 10 10">
            <rect x="0" y="0" height="10" width="10" fill="white" />
            <polygon points="0,0 10,0 5,8" />
            <rect x="0" y="8" width="10" height="2" />
        </symbol>
        <symbol id="led" viewBox="0 0 20 10">
            <use xlink:href="#diodo" x="5" y="0" height="10" width="10"/>
            <polyline points="15,3 18,5" stroke-width=".8" stroke="black" marker-end="url(#seta)"/>
            <polyline points="15,6 18,8" stroke-width=".8" stroke="black" marker-end="url(#seta)"/>
        </symbol>
        
        <!-- Transistores -->
        <g id="baseColetor">
            <circle r="10" cx="10" cy="10" stroke-width="1" stroke="black" fill="white" />
            <rect x="3" y="7" height="2" width="14"/>
            <line x1="10" x2="10" y1="-1" y2="8"    stroke-width=".9" stroke="black"/>
            <line x1="10" x2="20" y1="9" y2="20" stroke-width=".9" stroke="black"/>
        </g>
        <symbol id="transistorPNP" viewBox="-1 -1 22 22">
            <title>Transistor PNP</title>
            <g>
                <use xlink:href="#baseColetor" />
                <line x1="0" x2="9" y1="20" y2="10"  stroke-width=".9" stroke="black" marker-end="url(#seta)" />
            </g>
        </symbol>
        <symbol id="transistorNPN" viewBox="-1 -1 22 22">
            <title>Transistor NPN</title>
            <g>
                <use xlink:href="#baseColetor" />
                <line x1="10" x2="4" y1="9" y2="16"  stroke-width=".9" stroke="black" marker-end="url(#seta)" />
                <line x1="3" x2="0" y1="17" y2="20"  stroke-width=".9" stroke="black" />
            </g>
        </symbol>
        
        <!-- Componentes com terminais -->
        <marker id="setaDiodo" viewBox="0 0 10 10" refX="0" refY="5" orient="auto" markerUnits="userSpaceOnUse" markerWidth="20" markerHeight="20">
            <use xlink:href="#diodo" x="0" y="0" height="10" width="10" transform="rotate(-90,5,5)" />
        </marker>
        <marker id="setaLed" viewBox="0 0 20 20" refX="0" refY="10" orient="auto" markerUnits="userSpaceOnUse" markerWidth="40" markerHeight="40">
            <use xlink:href="#led" x="0" y="0" height="10" width="20" transform="rotate(-90,10,10)" />
        </marker>
        <marker id="setaPNP" viewBox="0 0 10 10" refX="0" refY="5" orient="auto" markerUnits="userSpaceOnUse" markerWidth="50" markerHeight="50">
            <use xlink:href="#transistorPNP" x="0" y="0" height="10" width="10" transform="rotate(-90,5,5)" />
        </marker>
        <marker id="setaNPN" viewBox="0 0 10 10" refX="0" refY="5" orient="auto" markerUnits="userSpaceOnUse" markerWidth="50" markerHeight="50">
            <use xlink:href="#transistorNPN" x="0" y="0" height="10" width="10" transform="rotate(-90,5,5)" />
        </marker>
        <marker id="setaRes" viewBox="0 0 20 10" refX="10" refY="5" orient="auto" markerUnits="userSpaceOnUse" markerWidth="40" markerHeight="20">
            <use xlink:href="#resistor" x="0" y="0" height="10" width="20"></use>
        </marker>
        <marker id="setaEle" viewBox="0 0 6 10" refX="3"  refY="5" orient="auto" markerUnits="userSpaceOnUse"  markerWidth="24" markerHeight="20">
            <use xlink:href="#capEletrolitico" x="0" y="0" height="10" width="12"></use>
        </marker>
        <marker id="setaCap" viewBox="0 0 5 10" refX="2.5" refY="5" orient="auto" markerUnits="userSpaceOnUse" markerWidth="16" markerHeight="20">
            <use xlink:href="#capacitor" x="0" y="0" height="10" width="10"></use>
        </marker>
    </defs>
    
    <g id="circuito1" stroke-width="2" stroke="black" stroke-linecap="square" transform="translate(0,25)">
        <g transform="translate(50,0)">
            <polyline points="0,50 25,50" marker-end="url(#setaPNP)"/>
            <polyline points="72,26 72,0" />
            <polyline points="72,73 72,100"/>
        </g>
        <g transform="translate(123,50) scale(1,-1) translate(0,-100)">
            <polyline points="0,50  25,50" marker-end="url(#setaNPN)"/>
            <polyline points="72,26 72,0"/>
            <polyline points="72,73 72,100"/>
        </g>
        <g transform="translate(72,75) rotate(270,50,25)">
            <polyline points="0,25 5,25 50,25" marker-mid="url(#setaLed)"/>
        </g>
        <g transform="translate(122,125) rotate(90,0,25)">
            <polyline points="0,25 30,25 60,25" marker-mid="url(#setaRes)" marker-end="url(#terra)"/>
        </g>
        <g transform="translate(196,25)">
            <polyline points="0,25 30,25 60,25" marker-mid="url(#setaEle)" marker-end="url(#terminal)"/>
        </g>
        <g transform="translate(10,25)">
            <polyline points="0,25 30,25 60,25" marker-mid="url(#setaCap)"/>
        </g>
    </g>
    
</svg>