<svg class="monsters" viewBox="0 0 178 103" style="background-color:#ffffff00"
    xmlns:xlink="http://www.w3.org/1999/xlink" xmlns="http://www.w3.org/2000/svg" width="178" height="103">
    <defs>
        <g id="monster-openweb_ground" opacity=".6">
            <path id="shore"
                  d="M71.316 58.19l.023.784-11.736.904 2.418 1.937-5.757 3.762-5.066 1.71-.807.91s3.224.343 3.685.343c.46 0 6.332-.114 6.332-.114l3.915.114 1.842 2.507 1.497 2.508 5.296-1.48 11.86-1.255 4.836 2.165 3.108 3.192 2.648 3.076 4.145-1.14 8.866-1.595 7.715-4.787-1.267-2.506V65.35l4.376.113 3.224-2.28 4.145.456-2.648-2.166-3.684.114-8.75-.228-2.764-5.47-.79-.105h4.632l-1.31.446.403 2.793.23.798 5.527.457 6.965.115 7.6 4.728 10.19.798-9.845.343-5.296-1.082-3.857-.684-2.995 1.88-3.915.798.403 2.963.633 1.654 1.843.112 13.125 4.673s-9.557-1.88-9.384-1.823c.173.057.46 1.367.46 1.367l2.995 1.538.288 3.59 1.496 1.653-2.534 2.394 3.34.627h-4.72l3.05-2.962-1.382-1.368-.633-3.647-2.705-1.14-1.21-2.507-2.935-1.368-2.878 1.026-5.93 4.73-2.994.228-5.296.456-3.28 1.026-3.974 3.19.634 1.425 3.8.227 1.842.4 2.532 2.05 3.11.228 4.087.456 8.405 7.98s-8.117-6.553-8.405-6.668c-.288-.114-2.88-.4-3.052-.4-.17 0-4.144.115-4.144.115l-2.014-1.767-2.65-1.14.174.913-.518 1.197-3.742.968-.173 2.394-9.383 3.875.748 2.565-2.073.968 1.497-1.254-.806-2.45 9.326-3.99-.057-2.508 2.936-.57 1.267-.968-.46-1.31s-1.842-.057-2.073-.057c-.23 0-2.302-.854-2.302-.854l-1.67.568-3.05 1.14-1.96 1.88-1.495.97-2.188.17-1.498 1.48.98-2.05 2.705-.17.806-.855 1.784-1.71 2.88-1.88 1.265-1.368 1.21-1.71 1.38-1.938-2.762-3.76s-3.57-2.508-3.742-2.565c-.173-.057-4.72-.912-4.72-.912l-14.03 2.087-1.392 1.41-.55 1.507.55 1.635c0-.002 3.367 2.145 3.627 2.21.26.064 2.85.865 2.85.865l1.1 1.86 1.586.256 1.294.962-2.655 2.66 2.007-2.212s-.42-.705-.55-.736c-.13-.032-2.202-.32-2.332-.32-.13 0-.032-.93-.032-.93s-.842-.802-.94-.802c-.096 0-2.266-.77-2.395-.8-.13-.033-1.522.384-1.522.384l.097 2.018-1.07 1.89-3.366 1.09-1.684 4.2.583-4.52s2.073-1.442 2.267-1.474c.194-.03 2.202-1.602 2.202-1.602s-.81-2.18-.907-2.21c-.097-.033-3.01-4.104-3.14-4.104-.13 0-2.656.384-2.753.384-.097 0-3.724 1.7-3.724 1.7l-.743 1.762-1.036 1.602-3.14 1.956s1.748-1.38 1.878-1.443c.13-.064 1.522-1.858 1.522-1.858l1.004-3.014s3.108-1.12 3.237-1.12c.13 0 3.175-1.732 3.272-1.732.097 0 2.132-2.762 2.132-2.848 0-.085-.575-1.453-.575-1.453l-1.153-1.625-1.698-.798-4.09.598-4 .115-1.583 1.225-1.727.513.173 1.282-.98 1.51-1.784.484-2.505.115-2.562 2.306s1.785-2.536 1.93-2.62c.143-.086 2.705-.257 2.906-.286.2-.028 1.208-.428 1.294-.484.087-.057 1.037-.912 1.037-.912s-.114-1.168-.057-1.31c.058-.143 1.44-1.055 1.44-1.055l1.18-.998-2.505-.456s-1.237 1.595-1.21 1.68c.03.087-1.898.343-1.985.343-.086 0-4.116-.684-4.202-.714-.086-.028-9.73.115-9.73.115l8.645-1.22s1.84-1.03 1.946-1.083l3.28-1.503 6.395-2.322 5.704-2.005 1.678-1.003s-1.786-1.134-1.892-1.213c-.107-.078-1.972-.66-2.16-.685-.186-.027-4.05.158-4.05.158s-1.84-.29-1.946-.29c-.106 0-2.852.343-2.852.343l-1.092.765-.64 1.083s-1.12.896-1.2.95c-.08.05-1.758.447-1.758.447l-.906-.42-.853-.53-1.547.345-3.693.343 1.728-.367 2.097-.61 1.975-.244.616.855 2.098-.242 1.234-1.344.864-1.1 1.974-.732 1.604-.367-2.344-.122-2.345.61-2.713.367-.74-.733.74-1.465-1.234-.123-2.22.122-2.84.243 3.332-.732 1.464-.107 1.867-.137.247 1.098-.247 1.344 3.578-.49 2.59-1.22 2.47.366 1.356 1.466 2.716-.367 15.01-.928zM98.636 76.746l4.72.57s.807.456.462.456c-.346 0-8.636 2.507-8.636 2.507l-4.145-5.7.69-1.937 1.613-1.71 4.03-1.937 6.678-3.078 2.303-1.025s1.613-.342 2.073-.114c.46.227 3.34 1.367 3.34 1.367l2.993 2.735 1.727 3.078s-1.152-1.026-1.727-1.14c-.576-.114-4.836-4.103-4.836-4.103l-1.957-1.027s-1.497.228-1.958.228c-.46 0-9.096 4.673-9.096 4.673l-2.534 1.37 2.994 4.9 1.266-.114zM96.28 72.762l2.34 4.675.646-.508-2.985-4.168zM98.642 72.94l.556 1.322.402-.044-.958-1.278zM100.29 73.182l.49.617-.245-1.303-.245.685zM102.83 72.895l.58-.044"/>
            <path id="rock"
                  d="M111.583 70.492l-.09.75 1.026-.154-.937-.596zM113.663 66.44c.064.083 1.397 1.34 1.397 1.34l-.17 1.32s-4.91-2.787-4.887-2.85c.02-.062-.17-3.853-.17-3.853s-.38-5.927-.465-5.927c-.084 0 2.095 3.456 2.16 3.56.062.105 2.135 6.41 2.135 6.41zM112.838 61.036l.762 3.768-.02-3.747-.742-.02zM114.7 61.245l.254 3.31.02-3.456-.274.145zM115.99 60.263l.34 3.373v-3.52l-.34.147zM117.64 61.286c.043.064.424 4.273.424 4.273l.233-4.357-.656.083zM119.757 61.434l.338 3.602.338-3.707-.74.02.064.084zM121.343 62.84l.043-2.64-.278.05-.082.013.317 2.576zM122.296 61.308l.528.02-.21 2.262-.318-2.282zM119.132 32.963c-.054-.107-.566-.48-.646-.507-.08-.026-1.077-.133-1.077-.133-.108-.026-.754.133-.808.213-.054.08-.377.533-.43.746-.054.213-.27.773-.216 1.04.054.265.51 1.038.51 1.17.002.135.513.88.54.987.026.105.807.452.942.425.134-.027.7-.133.7-.293 0-.16.215-.48.268-.64.054-.16.19-.612.216-.825.026-.213.08-1.2.134-1.36.054-.158-.08-.718-.134-.824zm-.592 1.865c-.054.133-.135.85-.135.985 0 .133-.646.266-.646.266s-.593-.453-.647-.56c-.053-.106-.27-1.89-.27-1.89l.46-.667.295-.054 1.023.16.296.984s-.322.64-.376.774zM119.697 26.036c0-.187-.296-.4-.296-.506 0-.107-.295-.347-.295-.347s-.673.16-.754.213c-.08.054-.7.48-.726.72-.026.24-.16.693.027.88.19.185.352.505.432.505.08 0 .646.055.727.055.08 0 .483-.054.59-.213.108-.16.162-.427.27-.613.107-.188.027-.507.027-.694zm-.565.932c-.055.08-.323.16-.485.16-.16 0-.242-.24-.403-.48-.162-.24.215-.506.215-.585 0-.08.537-.4.537-.4l.377.506s-.19.718-.242.798zM66.12 70.063l.683-5.196s.97-.962 1.08-1.033c.107-.072 5.25-2.527 5.79-2.67.538-.142 2.803-.748 3.343-.818.54-.072 4.135.284 4.135.284s.11 2.1.11 2.208c0 .106-.792 1.78-.972 1.957-.18.178-4.962 3.666-5.106 3.737-.144.07-5.106 1.958-5.358 2.136-.252.178-1.438 1.28-1.69 1.353-.252.072-1.223.286-1.223.392 0 .107 1.188.534 1.188.534l4.315-.64s6.832-1.068 6.94-1.104c.108-.036-2.337-.676-2.337-.676l-.432-1.14.324-.783 1.438-.32s3.057-2.92 3.273-3.06c.214-.143.754-1.175.754-1.175s.216-2.457.216-2.564c0-.107-.36-1.39-.36-1.495 0-.107-.863-.712-1.007-.748-.144-.036-3.02-.178-3.452-.178-.43 0-4.278 1.103-4.602 1.174-.324.072-4.53 1.46-5.07 1.674-.54.212-1.69 1.068-1.834 1.246-.144.178-1.26 1.388-1.546 1.886-.288.5-.216 1.957-.18 2.314.036.356-.036 1.316-.036 1.316l1.618 1.39zM84.208 70.454s-.396-.748-.396-.854c0-.107 1.007-1.246 1.115-1.246.108 0 1.438-2.243 1.762-2.42.323-.178 0-1.494 0-1.744s-1.655-1.745-1.943-2.03c-.288-.284-1.942-1.814-2.12-1.957-.18-.143-.613-.498-.793-.57-.18-.07.216 2.813.252 2.955.036.142.576-.64.576-.64s1.078.39 1.222.498c.144.107 2.122 1.922 2.122 1.922s-.18.854-.18 1.068c0 .214-.36.89-.503.96-.144.072-3.345-2.42-3.345-2.42l2.733 2.848s-.36.89-.574 1.103c-.216.214-.683.57-.683.57l-2.338-1.068 1.51 1.53-.107.39h-1.87c-.468-.034-1.618-.177-1.618-.177-.18-.07-1.906-1.032-1.906-1.032l.79 1.318s-.43.32-.647.32c-.215 0-.898-.57-.898-.57-.18 0-.685 1.246-.685 1.353 0 .108 1.15.5 1.33.5.18 0 7.193-.606 7.193-.606zM76.242 63.07s-.518 1.196-.346 1.253c.173.058.69.114.69-.057 0-.17.06-.684.06-.684l-.404-.513zM49.05 63.716l.46.15.27-.38-.73-.15-.077.34.077.04zM61.936 53.296l-.288.2s.058.256.058.34c0 .087.115.23.115.23s.46 0 .548-.086c.086-.085-.058-.427-.058-.427l-.374-.257zM45.874 66.767z"/>
        </g>

        <path id="monster-openweb_ground-paint"
              d="M121.452 59.75c-.542.104-9.406.487-9.873.308-.468-.18-.614 5.452-.614 5.452l-5.578-.196-7.762 3.454-6.512 4.637-4.65-1.855-3.722-1.855 4.65-5.563s-6.076-5.234-6.216-4.807c-.14.427-7.1-.427-6.944 0 .157.427-7.303 2.952-7.303 2.952L63.816 68.6l-11.804-.276L.177 55.784l.64 46.677 176.456.18V61.35l-47.09-6.492-10.232-.927 3.513 2.12s-1.47 3.596-2.01 3.7z"/>

        <path id="monster-openweb_tongue-background"
              d="M106.007 51.833c.325 1.476.388 2.547.522 4.063.042 1.255-.208 2.584-.436 3.815-.347 1.59-2.058 1.718-2.99 2.962-.07.234-2.425 1.605-2.403 1.338-2.954 1.134-3.993 1.49-7.205.404-2.607-.596-3.738-1.756-4.696-4.212-1.19-3.017-3.153-6.222-4.97-8.915-1.244-1.856-2.94-2.798-4.8-3.874l-1.028-1.234-1.126-1.566c.03-.03-.257-.118-.316-.12l-.203-.334 3.905-1.72s6.43-1.59 6.78-1.295c.354.296 1.546.27 1.915.392.37.123 5.04-.265 5.04-.265l3.45 1.4.87.927s3.46 2.46 5.127 4.212c.718 1.37 1.947 3.047 2.563 4.02z"/>
        <path id="monster-openweb_tongue-detail"
              d="M106.314 51.43c.325 1.477.853 2.915.988 4.43.043 1.256-.213 2.5-.44 3.73-.35 1.592-1.675 2.64-2.606 3.883-.072.235-1.286.665-1.263.4-2.956 1.133-6.2 2.79-9.414 1.702-2.607-.6-4.697-2.663-5.655-5.12-1.188-3.016-2.736-5.892-4.552-8.585-1.244-1.856-3.37-2.693-5.228-3.77l-.793-1.21-1.116-1.838c2.463.792 4.576 2.312 6.73 3.713 1.394.9 2.073 2.47 3.102 3.71 2.288 2.97 2.234 7.237 5.06 9.826 1.634 1.71 4.21 1.722 6.413 1.604 2.19-.08 4.02-1.41 5.818-2.533 1.03-.732 2.38-1.375 2.667-2.734.572-2.72-.13-5.542-1.26-8.03-1.528-3.144-4.355-5.448-7.436-6.96-2.364-1.163-5.078-1.298-7.66-1.167 1.678 1.4 3.59 2.425 5.376 3.656 2.42 2.105 4.72 4.897 4.754 8.26-1.95-1.232-2.037-3.904-3.787-5.342-2.23-1.913-4.51-3.95-7.34-4.93-1.99-.634-3.848-1.804-5.98-1.866-2.35.338-4.655 1.172-6.59 2.577l-.363-.596 4.326-2.45s6.492-1.794 6.844-1.498c.353.296 1.328-.066 1.698.057.37.122 7.645.258 7.645.258l1.646 1.788.672.373-.09.088c2.138 1.167 3.932 2.804 5.6 4.558.718 1.37 1.616 3.04 2.232 4.015z"/>

        <path id="monster-openweb_body-background"
              d="M73.005 4.674l-.262-.115-.49.1c-2.74-.015-5.553.43-7.82 1.978-1.76 1.102-2.833 2.955-3.98 4.63-.837 1.86-1.57 3.812-1.894 5.843-.175 3.853 1.393 7.944 4.51 10.365 1.372.927 3.003 1.352 4.498 2.034.023 2.23.293 4.453.303 6.68.033 3.676 1.023 7.29.845 10.962-1.083-.09-2.136-.375-3.026-.994-1.667-1.102-3.874-1.22-5.232-2.793-1.73-1.993-3.282-4.426-3.116-7.154-.275-2.22.988-4.73-.47-6.723-.846-1.21-2.468-.676-3.626-.377-.385-.46-.798-.906-1.21-1.34-1.083.526-2.104 1.198-2.93 2.088-.905-.006-2-.333-2.68.43-.6.725-1.178 1.596-1.27 2.55.353 1.634 1.206 3.156 1.442 4.826.22 1.81.794 3.556 1.355 5.285.79 2.1 1.76 4.26 3.592 5.68 1.486 1.732 3.45 2.87 5.524 3.75 1.16.768 1.265.76 1.265.76l.783.027.246.087c3.283 1.104 6.796.994 10.18.842.182 3.996.39 7.987.988 11.934.44 4.7 1.934 19.565 2.163 24.25 2.628.26 5.22-.237 7.775-.724.89-2.627 1.552-10.645 3.91-12.397 1.77-1.09 4.24-.912 5.9.347 2.15 2.142 3.452 10.11 3.952 13.03 3.267-.28 6.569-.42 9.862-.21.72-2.7.352-10.61.88-13.356.356-2.625-.19-10.55.57-13.13.92-1.238 1.834-11.542 1.666-13.594 4.536.656 9.368.514 13.512-1.583 1.62-1.195 3.485-2.278 4.445-4.125 1.496-2.706 3.008-5.414 3.99-8.366.817-2.226.917-4.638.805-6.993-1.04-.366-2.203-.577-2.98-1.433-.975-1.204-2.665-.094-3.794-1.014-1.093-.84-2.468-.14-3.47.483-.858.995-.373 2.405-.434 3.598.107 4.516-2.597 8.704-6.27 11.113-1.4.93-3.145.987-4.772 1.1-.053-.97-.12-1.953-.12-2.92l.024-.89c.008-.288.043-.587.076-.874.36-2.62.248-5.298.686-7.92 1.893-.09 3.92-.27 5.502-1.45 1.49-1.115 3.414-1.784 4.422-3.458 1.605-2.326 2.07-5.247 1.994-8.046-.213-2.647-1.81-4.856-3.05-7.12-.71-1.454-2.4-1.883-3.767-2.473-1.83-.58-3.52-1.553-5.422-1.884-1.574-.333-3.12.25-4.688.26-.86.063-1.54-.65-2.384-.64-.87.037-1.707.273-2.543.482-.66-1.52-1.254-3.13-2.424-4.337C95.547.582 93.757.97 92.58 1.606c-1.72.775-2.67 2.478-3.354 4.15-1.866-1.416-4.078-2.685-6.483-2.412-1.967.13-3.048 1.973-4.3 3.24-1.644-.758-3.228-1.873-5.085-1.898l-.355-.012z"/>
        <path id="monster-openweb_body-detail"
              d="M108.14 13.936c-1.768.853-2.688 2.946-2.615 4.86.837.084 1.69.115 2.542.133-.034-.84-.393-1.728-.14-2.556.572-.87 1.608-1.483 2.645-1.47 1.302.976 1.045 2.84 1.172 4.277l2.122-.214c.42-1.962-.425-3.866-1.75-5.257-1.213-.91-2.782-.435-3.977.226zM72.072 12.993c-1.995.66-2.38 2.947-2.59 4.773l2.01.46.715-.56c-.104-.92-.674-2.072.125-2.814.85-1.06 2.75-.845 3.277.438.364.97.503 1.986.854 2.956l2.264-.888c-.03-1.543-.587-3.053-1.496-4.297-1.402-1.462-3.526-.514-5.16-.067zM68.524 37.453c2.36 6.59 7.136 10.856 10.104 12.407 2.966 1.55 10.217 2.923 14.826.62 4.603-2.303 8.575-8.142 9.976-10.943 1.4-2.8.422-3.796.262-3.677-.16.12-15.15.88-15.15.88l-19.316.045-.702.668zM127.136 38.308c1.048-2.516 1.697-5.194 1.853-7.932-.93-.02-1.835.066-2.755.165l-.176-2.04c-1.118-.212-2.07.362-2.936 1.005l-.807-1.694c-.622.163-1.34.15-1.843.596-.228 1.734-.26 3.502-.567 5.232 2.296 1.73 4.84 3.085 7.23 4.67zm-4.116-1.2c-.124 1.733.183 3.466.544 5.147.06-1.732.028-3.508-.544-5.147zm-4.216 11.183c2.117-.79 3.938-2.232 5.19-4.13-.868-.765-1.9-1.432-3.116-1.33-.68-1.535-2.094-2.427-3.32-3.482-.672.83-2.153 1.606-1.445 2.853 1.004 1.98 1.582 4.15 2.69 6.09zm-3.27 1.234c.613-.987.97-2.1 1.12-3.25-.74.932-1.1 2.072-1.12 3.25zm-2.834.15c.568-.203 1.486 0 1.66-.754.6-1.67 1.775-3.345 1.34-5.197-1.18 1.467-1.856 3.37-1.852 5.257l-1.084.38c-.06-2.477 1.576-4.583 1.894-7.014-1.927 1.862-2.784 4.757-1.958 7.328zm-5.25-.487c1.324.505 2.74.634 4.15.578-.845-1.706-1.587-3.476-2.155-5.306-.488.126-.976.267-1.452.42-.198 1.423-.448 2.856-.542 4.307zm-4.063 28.085c.104-1.794.156-6.333.255-9.637l.27.01s2.636-18.918 2.278-19.028c-.045-.014-.077-.125-.097-.307.06-.385.104-.588.123-.56.033.05.084.176.143.348.256-1.956.534-3.914.598-5.88-.013-3.814.34-7.634.8-11.417-1.307-.085-2.612-.198-3.87-.56-1.893-.517-3.32-1.97-4.935-3.02-1.714-1.57-3.167-3.53-4.02-5.72-.822-2.843-.947-6.036.397-8.74.544-.886 1.256-1.66 1.928-2.434 1.237-1.46 3.027-2.182 4.516-3.3-.984.27-1.896.716-2.807 1.15-1.588-1.62-1.233-4.57-3.395-5.68-1.203-.298-2.503.322-3.452 1.063-1.49 1.173-1.81 3.178-2.224 4.923l-.853.303c-.213-.702-.21-1.57-.84-2.06-1.42-1.32-3.238-2.535-5.253-2.21-1.43.162-2.263 1.468-3.06 2.52 2.064 1.783 3.675 4.095 4.685 6.648 1.433 4.812.467 10.586-3.358 13.97-3.07 2.494-7.277 2.317-11.024 2.553-.385 1.37-.507 2.783-.57 4.2l-.36-.01c-.44-.044.194 4.93.47 6.953.063 2.247.162 4.49.49 6.71.566 4.696.645 9.43 1.692 14.033 1.047 4.54.276 19.455 1.16 23.99.25 1.22-.232 2.413.238 3.562 1.052-.12 4.63-.315 5.672-.473 1.194-2.485 1.695-10.636 4.09-12.332 1.54-1.05 3.628-1.733 5.404-.83 3.484 1.36 5.038 10.266 5.955 13.58 2.73.042 5.433-.008 8.115-.51.277-2.23.546-9.565.837-11.808zM62.372 52.944c2.203.143 4.418.35 6.617.18-.14-1.497-.265-3.007-.286-4.515-1.24-.045-2.462-.298-3.655-.654-.91 1.658-1.847 3.303-2.678 4.988zm-1.074-7.39c-.053 1.402.38 2.78 1.105 3.973-.17-1.37-.5-2.732-1.105-3.974zm-1.303.702c.272 2.017.923 3.993 1.946 5.745-.27-2.013-1.052-3.93-1.944-5.744zm-1.04 1.275c.22 1.91.636 3.903 1.928 5.402-.26-1.908-.89-3.777-1.93-5.4zM57.866 49c.003 1.35.462 2.69 1.455 3.654-.33-1.268-.714-2.552-1.455-3.653zm-.608 2.627c.172-.584-.02-.787-.6-.598-.185.582.007.773.6.597zm-6.908-5.49c1.313 1.912 3.188 3.263 4.982 4.662 1.67-1.842 3.28-3.754 4.58-5.887-.874-1.03-1.696-2.097-2.545-3.14-2.232 1.63-4.7 2.87-7.018 4.365zm.122-8.32c-.27 2.282-.29 4.69.4 6.908-.178-2.294 0-4.63-.4-6.91zm-1.184 1.13c.04 2.055-.846 4.457.563 6.228-.288-2.073-.222-4.175-.563-6.228zm-1.027 1.74c.35-.394.278-.634-.23-.732-.35.384-.266.637.23.733zm3.724 3.5c.14-2.323-.208-4.638-.32-6.948-.228 2.283-.632 4.757.32 6.947zm1.013-.66c.898-.798.577-2.046.605-3.11-.095-1.347.088-2.868-.84-3.97-.31 2.336-.295 4.76.235 7.08zm1.31-8.04c.164 2.288-.623 4.827.632 6.898.153-2.297.243-4.717-.63-6.897zm-6.707 2.755c2.84-1.77 5.893-3.14 8.77-4.832-.047-1.137.463-3.008-1.024-3.405-1.16-.4-1.848.832-2.614 1.453-.387-.754-.762-1.508-1.136-2.262-.55.378-1.148.7-1.57 1.24-.333.728-.288 1.548-.36 2.325l-.818.105c-.298-.633-.61-1.25-.95-1.858-.59.402-1.215.762-1.688 1.3-.202.707.123 1.43.315 2.112.44 1.255.777 2.533 1.073 3.822zm15.303 8.746c-.325.408-.106 1.426.47 1.433.233-.41.106-1.452-.47-1.432zm1.544-22.07c1.47 1.908 3.757 3.194 6.17 3.267 3.036.758 6.05-.337 8.9-1.267 2.216-.715 3.276-3.034 4.05-5.06.302-3.174.904-6.714-.898-9.574-.753-1.16-1.546-2.308-2.543-3.265-2.82-1.76-6-3.344-9.418-2.91-1.825.16-3.71.506-5.32 1.435-1.455 1.095-2.397 2.727-3.363 4.25-1.05 1.655-.894 3.684-.8 5.562.078 2.846 1.747 5.268 3.22 7.562zM104.26 8.2c-1.968.486-3.757 1.54-5.39 2.707-1.184.702-2.082 1.934-2.094 3.357-.18 3.622-.43 7.74 1.93 10.74 1.03 1.585 2.744 2.428 4.308 3.357 2.45 1.435 5.41 1.065 8.105.806 1.76-.136 2.868-1.668 4.326-2.436.86-.55 1.85-1.057 2.31-2.033 1.158-2.117 1.01-4.667.988-7.017-.467-2.42-1.9-4.694-3.963-6.034-2.073-1.433-4.108-3.214-6.703-3.496-1.273-.1-2.553-.014-3.818.047zm2.68 42.41l-.048.31.055.43-.42 2.654-.03-.11c-.62 4.803-1.604 12.84-1.708 12.913-.026.018-.068.03-.12.035-.24 3.452-.048 8.548-.34 10.553-.558 2.752-.28 10.67-1.028 13.372-3.276-.2-6.566-.054-9.82.235-.468-2.924-1.678-10.903-3.797-13.045-1.645-1.26-4.107-1.433-5.883-.338-2.37 1.76-3.116 9.797-4.03 12.432-2.552.492-5.145.996-7.765.74-.18-4.694-1.525-19.603-1.916-24.32-.558-3.965-.725-7.974-.868-11.99-3.385.156-6.9.268-10.175-.84-2.874-1.004-5.768-2.283-7.786-4.65-1.82-1.427-2.774-3.6-3.547-5.716-.546-1.743-1.105-3.5-1.31-5.326-.22-1.68-1.063-3.216-1.403-4.865.102-.96.688-1.838 1.297-2.57.69-.768 1.785-.438 2.69-.432.84-.895 1.868-1.573 2.96-2.102.41.438.817.89 1.2 1.353 1.164-.3 2.794-.838 3.628.383 1.444 2.007.154 4.536.41 6.774-.193 2.746 1.34 5.196 3.052 7.202 1.343 1.584 3.55 1.702 5.207 2.81.885.622 1.936.908 3.02.998.212-3.694-.742-7.33-.738-11.032.013-2.24-.236-4.48-.236-6.726-1.49-.69-3.12-1.117-4.485-2.053-3.1-2.442-4.63-6.568-4.42-10.452.346-2.05 1.098-4.02 1.954-5.893 1.166-1.69 2.26-3.558 4.033-4.668 2.6-1.775 5.895-2.108 8.965-1.955 1.86.027 3.434 1.154 5.07 1.921 1.268-1.274 2.37-3.13 4.34-3.26 2.41-.27 4.608 1.013 6.458 2.443.703-1.684 1.67-3.4 3.4-4.178 1.182-.64 2.977-1.027 3.963.16 1.156 1.22 1.73 2.844 2.374 4.376.837-.208 1.676-.444 2.546-.48.844-.008 1.515.71 2.374.65 1.567-.01 3.116-.594 4.683-.256 1.896.336 3.57 1.318 5.39 1.905 1.356.596 3.036 1.03 3.726 2.494 1.21 2.28 2.774 4.506 2.956 7.17.042 2.814-.46 5.75-2.086 8.087-1.024 1.683-2.95 2.354-4.447 3.477-1.592 1.184-3.615 1.362-5.504 1.453-.467 2.635-.387 5.327-.774 7.96-.218 1.557-.095 3.14-.037 4.703 1.624-.113 3.362-.17 4.77-1.104 3.687-2.42 6.43-6.626 6.378-11.163.076-1.2-.39-2.616.475-3.616 1.008-.623 2.385-1.327 3.464-.482 1.113.926 2.81-.19 3.766 1.022.762.86 1.917 1.073 2.948 1.44.082 2.365-.048 4.787-.887 7.022-1.014 2.964-2.552 5.682-4.074 8.397-.978 1.852-2.848 2.94-4.474 4.14-4.128 2.093-8.912 2.25-13.4 1.607z"/>
        <path id="monster-openweb_teeth"
              d="M100.554 38.036c-.608-.05-5.123.692-5.123.692l.77 2.62s4.635-1.478 4.3-1.584c-.333-.107.662-1.68.054-1.728zM80.16 38.215c-.52.198-5.025-.523-5.084-.17-.06.35.733 3.48.733 3.48s3.058.02 3.39.115c.332.095 1.48-3.622.96-3.425z"/>
    </defs>

    <g class="monster-openweb">
        <g class="monster-openweb__body">
            <g class="monster-trends__body">
                <use xlink:href="#monster-openweb_body-background" fill="green" stroke="blue"/>
                <use xlink:href="#monster-openweb_body-detail" fill="blue"/>
                <use xlink:href="#monster-openweb_teeth" fill="white"/>
            </g>
        </g>
        <g class="monster-openweb__tongue" style="transform-origin: top">
            <g>
                <use xlink:href="#monster-openweb_tongue-background" fill="yellow"/>
                <use xlink:href="#monster-openweb_tongue-detail" fill="red"/>
            </g>
        </g>
    </g>

    <use xlink:href="#monster-openweb_ground-paint" fill="orange"/>
    <use xlink:href="#monster-openweb_ground" fill="purple"/>
</svg>
