<svg class="monsters" viewBox="0 0 180 108" style="background-color:#ffffff00" xmlns:xlink="http://www.w3.org/1999/xlink" xmlns="http://www.w3.org/2000/svg" width="180" height="108">
    <defs>
        <path id="monster-payments_body-background"
            d="M69.262 65.354l.943-.63c-.305.23-.612.454-.924.673l-.018-.043zm42.544 1.994l1.425-.817c-.412.357-.868.678-1.373.955l-.05-.137zm-11.633-1.46l.136-.75 1.333-1.334c-.48.703-.96 1.403-1.47 2.084zm4.877 10.715l.105-.21.112.052c-.07.057-.143.11-.216.16zm-13.818-5.097v.223h-.023l.022-.224zm-23.12 5.426l.295.293-.303-.102.01-.19zm6.362-3.796v.31c-2.424-.522-5.4-.27-6.977 1.863-.283.906-1.238 1.948-.656 2.88 2.523 1.438 5.492.45 8.194.24 2.58-.54 5.217.21 7.793-.253.38-.435.385-1.062.38-1.608-.15-2.757-.05-5.517-.224-8.274 1.82 2.096 4.482 3.314 7.262 3.302.033 1.99-.082 3.974-.205 5.96 0 .483-.2 1.62.656 1.418 5.094-.525 10.216-.17 15.326-.373.004-1.14.61-2.683-.578-3.433-.453-.288-.933-.492-1.427-.63l-.216-.325h-3.49l-1.11-1.11c.29-1.547.703-3.07 1.09-4.6.28-1.81 1.81-3.033 2.754-4.52.443 1.126.756 2.29 1.064 3.457.115.506.216.903.29 1.093l.213.75c1.867-1.706 2.265-4.377 3.314-6.578 1.64 1.69 2.133 4.056 2.534 6.292.997-.038 2.05-.108 2.83-.823 3.298-2.456 4.5-6.742 4.745-10.674 2.16.167 4.122 1.122 6.016 2.107.434-3.23.712-6.574-.173-9.757-.435-1.952-1.362-3.736-2.25-5.508 1.376-.217 2.804-.467 4.19-.167 1.066.495 2.002 1.242 3.087 1.714.353-2.683-.294-5.455-1.537-7.834-1.735-2.56-4.12-4.61-6.677-6.312 2.162-1.316 4.713-.832 6.923.058-.23-1.452-.434-2.908-.746-4.343l-.024-.08v-.65l-.9-1.196c-.165-.243-.34-.478-.528-.706l-.667-.89-.335-.202c-.83-.828-1.732-1.6-2.52-2.43 1.156-.17 2.324-.223 3.49-.33-.536-2.328-2.172-3.92-4.014-5.285l-.113-.13-.423-.256c-.863-.61-1.753-1.182-2.58-1.767 1.026-.51 2.113-.878 3.192-1.263-.415-.48-.846-.947-1.248-1.435-2.075-2.856-5.868-3.245-9.03-4.086-2.087-.685-4.112.357-6.123.792 1.03-1.653 2.515-2.946 3.58-4.566l-.347-.558c-1.748-.07-3.45.402-5.15.71-2.196.39-4.144 1.575-6.346 1.928.296-1.604.99-3.093 1.288-4.692-.198-.01-.395-.018-.592-.018l.038-.154-.485.16c-3.598.133-7.098 1.936-9.332 4.76-.335-.725-.765-1.363-1.27-1.917l-.084-.21-.29-.175C83.817.67 80.39-.08 77.312.007l-.294 1.407c1.35.73 2.444 1.816 3.297 3.088-.7-.253-1.41-.466-2.127-.64l-.22-.174-4.19-.7-1.854.134c-1.663-.034-3.332.027-4.987.113-.906.085-1.802.24-2.69.435L64 3.688l-.083.055c-.637.147-1.27.313-1.9.484-.74.23-1.643.414-1.918 1.25 1.578.896 3.41 1.21 5.002 2.1-2.71 1.108-5.257 2.634-7.496 4.516-1.312 1.272-2.478 2.69-3.76 3.99l.172 1.125c1.652-.16 3.313-.267 4.98-.222-3.738 3.372-7.28 7.23-9.082 12.013-.545 1.7-1.156 3.48-.82 5.29 1.793-1.075 3.61-2.105 5.496-3.01-1.727 2-3.396 4.08-4.606 6.442-.43.832-.476 1.776-.468 2.69 2.35-.67 4.52-1.95 7.005-2.11-.668 2.59-1.374 5.187-1.78 7.84-.607 3.175-.057 6.402.18 9.585.55.18 1.092.394 1.665.505.702-.497 1.272-1.153 1.888-1.757.086 1.57.286 3.13.463 4.696.207 2.483 1.286 4.784 2.434 6.962 1.16-1.612 1.932-3.52 3.44-4.865 1.076 2.38 1.182 5.06 2.318 7.42 1.935-1.63 4.09-2.978 6.016-4.623.2 3.058.728 6.074 1.326 9.072z"/>
        <path id="monster-payments_body-detail"
            d="M120.69 31.746c2.162-1.316 4.713-.832 6.923.058-.23-1.452-.434-2.908-.746-4.343-.767-2.653-3.167-4.252-4.975-6.155 1.157-.168 2.325-.222 3.49-.328-.832-3.626-4.335-5.463-7.127-7.44 1.025-.51 2.112-.878 3.19-1.263-.414-.48-.845-.947-1.247-1.435-2.075-2.856-5.868-3.245-9.03-4.086-2.087-.685-4.112.357-6.123.792 1.03-1.653 2.515-2.946 3.58-4.566l-.347-.558c-1.748-.07-3.45.402-5.15.71-2.196.39-4.144 1.575-6.346 1.928.296-1.604.99-3.093 1.288-4.692-3.954-.213-7.924 1.653-10.372 4.75C85.89 1.197 81.305-.11 77.31.007l-.294 1.406c1.35.73 2.444 1.816 3.297 3.088-4.286-1.55-8.887-1.5-13.378-1.267-1.67.156-3.306.553-4.917.992-.742.23-1.644.414-1.92 1.25 1.58.896 3.413 1.21 5.004 2.1-2.71 1.108-5.257 2.634-7.496 4.516-1.312 1.272-2.478 2.69-3.76 3.99.04.28.127.846.172 1.125 1.652-.16 3.313-.267 4.98-.222-3.738 3.372-7.28 7.23-9.082 12.013-.545 1.7-1.156 3.48-.82 5.29 1.793-1.075 3.61-2.105 5.496-3.01-1.727 2-3.396 4.08-4.606 6.442-.43.832-.476 1.776-.468 2.69 2.35-.67 4.52-1.95 7.005-2.11-.668 2.59-1.374 5.187-1.78 7.84-.607 3.175-.057 6.402.18 9.585.55.18 1.092.394 1.665.505.702-.497 1.272-1.153 1.888-1.757.086 1.57.286 3.13.463 4.696.207 2.483 1.286 4.784 2.434 6.962 1.16-1.612 1.932-3.52 3.44-4.865 1.076 2.38 1.182 5.06 2.318 7.42 1.935-1.63 4.09-2.978 6.016-4.623.206 3.167.767 6.292 1.39 9.396-2.435-.542-5.45-.303-7.04 1.85-.284.906-1.24 1.948-.657 2.88 2.523 1.438 5.492.45 8.194.24 2.58-.54 5.217.21 7.793-.253.38-.435.385-1.062.38-1.608-.15-2.757-.05-5.517-.224-8.274 1.82 2.096 4.482 3.314 7.262 3.302.033 1.99-.082 3.974-.205 5.96 0 .483-.2 1.62.656 1.418 5.094-.525 10.216-.17 15.326-.373.004-1.14.61-2.683-.578-3.433-1.945-1.234-4.356-.922-6.493-.484.256-2.1.822-4.133 1.34-6.18.28-1.812 1.81-3.034 2.754-4.52.677 1.72 1.046 3.53 1.567 5.3 1.867-1.707 2.265-4.378 3.314-6.58 1.64 1.69 2.133 4.057 2.534 6.293.997-.038 2.05-.108 2.83-.823 3.298-2.456 4.5-6.742 4.745-10.674 2.16.167 4.122 1.122 6.016 2.107.434-3.23.712-6.574-.173-9.757-.435-1.952-1.362-3.736-2.25-5.508 1.376-.217 2.804-.467 4.19-.167 1.066.495 2.002 1.242 3.087 1.714.353-2.683-.294-5.455-1.537-7.834-1.735-2.56-4.12-4.61-6.677-6.312zM74.014 77.25c-1.953.135-4.027.562-5.91-.127.017-1.357 1.19-2.235 2.424-2.478 1.845-.68 3.555.59 5.147 1.346.168-.66.327-1.32.484-1.98 1.87.258 3.76.126 5.645.077.012.956.02 1.916.03 2.875-2.61-.102-5.242-.21-7.82.288zm.816-8.883c.237.015.713.044.95.06.477.833.96 1.667 1.437 2.503-.69-.123-1.38-.25-2.06-.382-.118-.726-.225-1.45-.327-2.18zm3.002 2.744c.344-.783.644-1.6 1.115-2.317.923.057 1.825.263 2.74.39.114.557.225 1.12.344 1.677-1.382.278-2.796.34-4.198.25zm20.98-1.533c-.107.564-.21 1.128-.312 1.698-2.427.204-4.856.425-7.29.454.06-1.013.728-1.863 1.693-2.183 1.92-.524 3.994-.528 5.91.03zm-2.814-2.77c.435-.622.874-1.24 1.33-1.852.327.63.647 1.27.96 1.915-.768-.017-1.53-.04-2.29-.062zm6.21 8.647c1.086.053 2.087.537 3.06.99-1.45 1.15-3.393.875-5.11.896-2.93-.156-5.85.004-8.77.184.018-.98.046-1.96.087-2.936 1.88-.103 3.745-.403 5.63-.422.038.853.067 1.706.104 2.56 1.627-.543 3.247-1.276 4.998-1.272zm17.638-31.202c2.83 3.666 4.01 8.517 3.17 13.08-2.07-.67-4.11-1.495-6.266-1.852.192 4.385-.677 9.692-4.893 12.005-1.058-2.863-2.35-5.652-4.334-8.01-1.087 1.986-1.333 4.303-2.396 6.308-.455-1.222-.926-2.436-1.463-3.622-.226.002-.67.002-.89-.002-.95 1.352-1.842 2.75-2.85 4.06-.804-1.28-1.744-2.485-3.002-3.347-1.698 2.86-4.032 5.393-6.992 6.952-1.3.61-2.633-.135-3.74-.796-2.342-1.365-3.622-3.854-5.156-5.978-1.668 1.558-2.47 3.74-3.57 5.683-.986-1.36-1.72-2.898-2.02-4.56-.147-.967-.626-1.816-1.168-2.61-1.685 1.253-3.276 2.63-4.995 3.837-.762-1.607-1.68-3.158-2.058-4.917-.176-1.026-1.07-1.653-1.747-2.35-1.074 1.37-2.177 2.714-3.374 3.978-.84-2.662-1.447-5.435-1.414-8.24.79-1.304 1.603-2.596 2.325-3.944.956 3.25 1.756 6.676 3.946 9.367.47-.923.82-1.9 1.042-2.91.938 1.856 2.28 3.97 4.466 4.407-.205-.963-.755-1.77-1.424-2.465-1.546-1.665-2.21-3.874-3.055-5.926-.217-.037-.647-.114-.86-.152-.268 1.047-.534 2.096-.87 3.126-1.214-2.642-1.805-5.508-2.063-8.392-.205-.205-.615-.61-.82-.816-.673 1.25-1.304 2.527-2.105 3.7-.618-2.572-.09-5.217-.364-7.813-2.12 2.353-.862 5.78-1.15 8.62-1.024 1.005-1.918 2.13-2.767 3.285-.266-1.12-.537-2.256-.483-3.418.275-4.39 1.627-8.603 3.062-12.733-1.697-1.423-3.944-.837-5.933-.627 1.19-2.473 2.748-4.745 4.495-6.862-.36-.402-.686-.832-1.09-1.18-1.404.192-2.75.647-4.094 1.073.5-2.066 1.48-3.97 2.747-5.663 1.256-1.628 2.158-3.523 3.638-4.972.968-.98 2.067-1.857 2.723-3.095-1.512-.44-3.05-.767-4.596-1.062 1.464-1.366 2.95-2.793 4.823-3.58 2.292-1.05 4.827-1.465 7.04-2.69-.118-.268-.356-.8-.475-1.064-1.714-.996-3.65-1.64-5.138-3.01 1.857-.44 3.76-.717 5.675-.652 2.47.082 5.027-.304 7.414.537 1.69.472 3.182 1.416 4.707 2.256.224-.84.63-1.74.268-2.61-.438-1.08-1.185-2-1.783-2.996 1.816.32 3.715.795 5.134 2.042 1.18 1.233 1.623 2.927 2.308 4.45 1.296-1.285 1.854-3.15 3.31-4.29 1.607-1.183 3.575-1.72 5.52-2.052-.67 1.826-.948 3.766-.837 5.71 3.318-1.703 6.944-2.638 10.537-3.573-1.432 1.927-2.954 4.015-2.838 6.55 2.52-.833 4.73-3.25 7.593-2.436 2.89.84 5.873 1.598 8.414 3.284-1.282.726-2.5 1.55-3.67 2.444.03.238.092.713.12.952 1.5.455 3.166.623 4.42 1.657 1.173.96 2.2 2.083 3.25 3.173-1.334.386-2.79.538-3.955 1.338-.147.5-.22 1.02-.303 1.534 3.747.155 6.28 3.633 7.196 6.976-1.632.12-3.416-.41-4.914.464-1.107.557-2.386 1.148-2.562 2.53 2.808 1.26 5.086 3.362 7.062 5.68 1.02 1.448 1.44 3.203 1.783 4.913-2.52-.557-5.9-.992-7.71 1.297zM116.848 19.11c-.783-1.238-1.706-2.4-2.73-3.44-.674-.784-1.776-.734-2.7-.918 1.18 1.483 2.707 2.678 3.712 4.318-.98.08-1.96.077-2.937.05-.167.34-.327.68-.488 1.024.82.27 1.682.455 2.47.83 1.21.835 1.603 2.35 2.128 3.645-1.526-.215-3.252-1.51-4.572-.162.71.97 1.546 1.862 2.117 2.933.17 1.338-.148 2.692-.046 4.04 1.264-1.455 1.61-3.423 1.236-5.28.853.06 1.71.064 2.566-.022.075-1.637-.463-3.178-1-4.692-.32-.775.255-1.542.246-2.325z"/>
        
        <path id="monster-payments_left-eye"
            d="M77.762 16.35c-2.64.21-4.93 1.69-7.066 3.13-2.47 1.727-4.04 4.618-3.946 7.653-.32 3.465.1 7.591 3.117 9.823 2.392 2.11 5.672 3.616 8.908 2.94 3.96-.685 7.853-3.298 9.165-7.23 1.657-3.934.92-8.45-.7-12.263-1.96-3.056-5.923-4.647-9.478-4.052zM83.5 32.256c-1.883 1.136-4.15 1.468-6.308 1.575-2.284-.353-4.43-1.452-6.21-2.912-2.12-1.956-2.303-5.225-1.205-7.763.902-3.33 4.655-4.344 7.55-5.25 2.552-.455 5.196.353 7.234 1.89 3.536 3.363 2.622 9.585-1.06 12.46zM81.227 19.324c-2.403-.463-4.437 2.132-4.1 4.368 1.29-.59 1.853-1.936 2.738-2.95 1.97-.483 2.023 2.186 2.806 3.356.317-.378.657-.743.927-1.157-.033-1.508-.803-3.185-2.37-3.616z"/>
        <path id="monster-payments_right-eye"
            d="M99.51 17.117c-2.88.27-5.6 2.06-6.775 4.73-.775 1.737-2.05 3.354-2.162 5.31.136 2.842 1.403 5.508 3.07 7.768.94.804 2.122 1.296 3.287 1.69 2.124.882 4.527.176 6.48-.84 2.71-1.78 5.11-4.45 5.445-7.81.086-1.878.653-3.966-.594-5.602-1.517-3.27-5.01-5.918-8.75-5.246zm2.234 15.15c-1.858.037-3.87.27-5.54-.72-3.752-2.58-3.892-8.74-.45-11.64 1.082-.81 2.414-1.207 3.7-1.563 2.33-.205 4.694.76 6.39 2.33 1.06 1.673 1.108 3.773 1.2 5.692.143 2.908-2.294 5.905-5.3 5.9zM97.483 25.677c-1.587.68-1.71 2.56-2.054 4.015.306-.054.926-.152 1.233-.2.357-.97.833-1.887 1.452-2.716.935.623 1.336 1.633 1.49 2.707.285.065.86.2 1.147.266.205-1.153.234-2.445-.603-3.372-.67-.648-1.78-1.39-2.667-.7z"/>
        <path id="monster-payments_mouth"
            d="M111.915 36.89c-1.698 1.23-3.556 2.22-5.385 3.235-3.252 2.125-7.3 1.948-10.946 2.887-3.46.944-7.073.706-10.62.752-3.478-.194-6.894-.96-10.347-1.37-3.113-.328-6.02-1.616-8.748-3.077-1.846-1.083-2.326-3.732-4.55-4.207.72 3.883 4.102 6.455 7.21 8.497 3.995 2.215 8.572 3.027 13.054 3.573.316 1.48.562 2.99 1.128 4.397.877 1.55 3.272 1.623 4.363.27.332-1.395.12-2.834.02-4.24.25.052.743.155.99.204.26 1.084.364 2.232.91 3.23 1.136.426 2.57.462 3.597-.28 1.303-.812.74-2.535.844-3.806 4.43-.948 9.017-1.546 13.135-3.54 2.658-1.627 4.865-3.875 7.346-5.746 1.87-1.275 2.887-3.49 3.276-5.66-1.92 1.45-3.423 3.355-5.277 4.882zM86.087 51.088c-.796-.057-1.865.307-2.4-.492-.524-.993-.57-2.145-.737-3.232 1.045.127 2.088.28 3.132.427.022 1.1.03 2.195.005 3.298zm6.13-1.518c-.618.656-1.607.378-2.403.456-.217-.85-.422-1.703-.635-2.547.946-.185 1.894-.366 2.86-.456.514.718.58 1.76.178 2.546z"/>
 
        <path id="monster-payments_ground-paint"
            d="M122.452 60.75c-.542.104-9.406.487-9.873.308-.468-.18-.614 5.452-.614 5.452l-5.578-.196-7.762 3.454-6.512 4.637-4.65-1.855-3.722-1.855 4.65-5.563s-6.076-5.234-6.216-4.807c-.14.427-7.1-.427-6.944 0 .157.427-7.303 2.952-7.303 2.952L64.816 69.6l-11.804-.276-51.836-12.54-.36 46.677 178.456.18V62.35l-48.09-6.492-10.232-.927 3.513 2.12s-1.47 3.596-2.01 3.7z"/>
        <g opacity=".702" id="monster-payments_ground">
            <path
                d="M72.316 59.19l.023.784-11.736.904 2.418 1.937-5.757 3.762-5.066 1.71-.807.91s3.224.343 3.685.343c.46 0 6.332-.114 6.332-.114l3.915.114 1.842 2.507 1.497 2.508 5.296-1.48 11.86-1.255 4.836 2.165 3.108 3.192 2.648 3.076 4.145-1.14 8.866-1.595 7.715-4.787-1.267-2.506V66.35l4.376.113 3.224-2.28 4.145.456-2.648-2.166-3.684.114-8.75-.228-2.764-5.47-.79-.105h4.632l-1.31.446.403 2.793.23.798 5.527.457 6.965.115 7.6 4.728 10.19.798-9.845.343-5.296-1.082-3.857-.684-2.995 1.88-3.915.798.403 2.963.633 1.654 1.843.112 13.125 4.673s-9.557-1.88-9.384-1.823c.173.057.46 1.367.46 1.367l2.995 1.538.288 3.59 1.496 1.653-2.534 2.394 3.34.627h-4.72l3.05-2.962-1.382-1.368-.633-3.647-2.705-1.14-1.21-2.507-2.935-1.368-2.878 1.026-5.93 4.73-2.994.228-5.296.456-3.28 1.026-3.974 3.19.634 1.425 3.8.227 1.84.4 2.534 2.05 3.11.228 4.087.456 8.405 7.98s-8.117-6.553-8.405-6.668c-.288-.114-2.88-.4-3.052-.4-.17 0-4.144.115-4.144.115l-2.014-1.767-2.65-1.14.174.913-.518 1.197-3.742.968-.173 2.394-9.383 3.875.748 2.565-2.073.968 1.497-1.254-.806-2.45 9.326-3.99-.057-2.508 2.936-.57 1.267-.968-.46-1.31s-1.842-.057-2.073-.057c-.23 0-2.302-.854-2.302-.854l-1.67.568-3.05 1.14-1.958 1.88-1.497.97-2.188.17-1.498 1.48.98-2.05 2.705-.17.806-.855 1.784-1.71 2.88-1.88 1.265-1.368 1.21-1.71 1.38-1.938-2.762-3.76s-3.57-2.508-3.743-2.565c-.172-.057-4.72-.912-4.72-.912l-14.03 2.087-1.39 1.41-.55 1.507.55 1.635c0-.002 3.367 2.145 3.626 2.21.26.064 2.85.865 2.85.865l1.1 1.86 1.586.256 1.294.962-2.655 2.66 2.007-2.212s-.42-.705-.55-.736c-.13-.032-2.202-.32-2.332-.32-.13 0-.032-.93-.032-.93s-.842-.802-.94-.802c-.096 0-2.266-.77-2.395-.8-.13-.033-1.522.384-1.522.384l.097 2.018-1.068 1.89-3.368 1.09-1.684 4.2.583-4.52s2.073-1.442 2.267-1.474c.194-.03 2.202-1.602 2.202-1.602s-.81-2.18-.907-2.21c-.097-.033-3.01-4.104-3.14-4.104-.13 0-2.656.384-2.753.384-.097 0-3.724 1.7-3.724 1.7l-.743 1.762-1.036 1.602-3.14 1.956s1.748-1.38 1.878-1.443c.13-.064 1.522-1.858 1.522-1.858l1.004-3.014s3.108-1.12 3.237-1.12c.13 0 3.174-1.732 3.272-1.732.097 0 2.132-2.762 2.132-2.848 0-.085-.575-1.453-.575-1.453l-1.153-1.625-1.698-.798-4.09.598-4 .115-1.583 1.225-1.727.513.173 1.282-.98 1.51-1.784.484-2.505.115-2.562 2.306s1.785-2.536 1.93-2.62c.143-.086 2.705-.257 2.906-.286.2-.028 1.208-.428 1.294-.484.087-.057 1.037-.912 1.037-.912s-.114-1.168-.057-1.31c.058-.143 1.44-1.055 1.44-1.055l1.18-.998-2.505-.456s-1.237 1.595-1.21 1.68c.03.087-1.898.343-1.985.343-.086 0-4.116-.684-4.202-.714-.086-.028-9.73.115-9.73.115l8.645-1.22s1.84-1.03 1.946-1.083l3.28-1.503 6.395-2.322 5.704-2.005 1.678-1.003s-1.786-1.134-1.892-1.213c-.107-.078-1.972-.66-2.16-.685-.186-.027-4.05.158-4.05.158s-1.84-.29-1.946-.29c-.106 0-2.852.343-2.852.343l-1.092.765-.64 1.083s-1.12.896-1.2.95c-.08.05-1.758.447-1.758.447l-.906-.42-.853-.53-1.547.345-3.693.342 1.728-.366 2.097-.61 1.975-.244.616.855 2.098-.242 1.234-1.344.864-1.1 1.974-.732 1.604-.367-2.344-.122-2.345.61-2.713.367-.74-.733.74-1.465-1.234-.123-2.22.122-2.84.243 3.332-.732 1.464-.107 1.867-.137.247 1.098-.247 1.344 3.578-.49 2.59-1.22 2.47.366 1.356 1.466 2.716-.367 15.01-.928zM99.636 77.746l4.72.57s.807.456.462.456c-.346 0-8.636 2.507-8.636 2.507l-4.145-5.7.69-1.937 1.613-1.71 4.03-1.937 6.678-3.078 2.303-1.025s1.613-.342 2.073-.114c.46.227 3.34 1.367 3.34 1.367l2.993 2.735 1.727 3.078s-1.152-1.026-1.727-1.14c-.576-.114-4.836-4.103-4.836-4.103l-1.957-1.027s-1.497.228-1.958.228c-.46 0-9.096 4.673-9.096 4.673l-2.534 1.37 2.994 4.9 1.266-.114zM97.28 73.762l2.34 4.675.646-.508-2.985-4.168zM99.642 73.94l.556 1.322.402-.044-.958-1.278zM101.29 74.182l.49.617-.245-1.303-.245.685zM103.83 73.895l.58-.044"/>
            <path
                d="M112.583 71.492l-.09.75 1.026-.154-.937-.596zM114.663 67.44c.064.083 1.397 1.34 1.397 1.34l-.17 1.32s-4.91-2.787-4.887-2.85c.02-.062-.17-3.853-.17-3.853s-.38-5.927-.465-5.927c-.084 0 2.095 3.456 2.16 3.56.062.105 2.135 6.41 2.135 6.41zM113.838 62.036l.762 3.768-.02-3.747-.742-.02zM115.7 62.245l.254 3.31.02-3.456-.274.145zM116.99 61.263l.34 3.372v-3.518l-.34.146zM118.64 62.286c.043.064.424 4.273.424 4.273l.233-4.357-.656.083zM120.757 62.434l.338 3.602.338-3.707-.74.02.064.084zM122.343 63.84l.043-2.64-.278.05-.082.013.317 2.576zM123.296 62.308l.528.02-.21 2.263-.318-2.282zM120.132 33.963c-.054-.107-.566-.48-.646-.507-.08-.026-1.077-.133-1.077-.133-.108-.026-.754.133-.808.213-.054.08-.377.533-.43.746-.054.213-.27.773-.216 1.04.054.265.51 1.038.51 1.17.002.135.513.88.54.987.026.105.808.452.942.425.134-.027.7-.133.7-.293 0-.16.215-.48.268-.64.054-.16.19-.612.216-.825.026-.213.08-1.2.134-1.36.054-.158-.08-.718-.134-.824zm-.592 1.865c-.054.133-.135.85-.135.985 0 .133-.646.266-.646.266s-.593-.453-.647-.56c-.053-.106-.27-1.89-.27-1.89l.46-.667.295-.054 1.023.16.296.984s-.322.64-.376.774zM120.697 27.036c0-.187-.296-.4-.296-.506 0-.107-.295-.347-.295-.347s-.673.16-.754.213c-.08.054-.7.48-.726.72-.026.24-.16.693.027.88.19.185.352.505.432.505.08 0 .646.055.727.055.08 0 .483-.054.59-.213.108-.16.162-.427.27-.613.107-.188.027-.507.027-.694zm-.565.932c-.055.08-.323.16-.485.16-.16 0-.242-.24-.403-.48-.162-.24.215-.506.215-.585 0-.08.537-.4.537-.4l.377.506s-.19.718-.242.798zM67.12 71.063l.683-5.196s.97-.962 1.08-1.033c.107-.072 5.25-2.527 5.79-2.67.538-.142 2.803-.748 3.343-.818.54-.072 4.135.284 4.135.284s.11 2.1.11 2.208c0 .106-.792 1.78-.972 1.957-.18.178-4.962 3.666-5.106 3.737-.144.07-5.106 1.958-5.358 2.136-.252.178-1.438 1.28-1.69 1.353-.252.072-1.223.286-1.223.392 0 .107 1.188.534 1.188.534l4.315-.64s6.832-1.068 6.94-1.104c.108-.036-2.337-.676-2.337-.676l-.432-1.14.324-.783 1.438-.32s3.057-2.92 3.273-3.06c.214-.143.754-1.175.754-1.175s.216-2.457.216-2.564c0-.107-.36-1.39-.36-1.495 0-.107-.863-.712-1.007-.748-.144-.036-3.02-.178-3.452-.178-.43 0-4.278 1.103-4.602 1.174-.324.072-4.53 1.46-5.07 1.674-.54.212-1.69 1.068-1.834 1.246-.144.178-1.26 1.388-1.546 1.886-.288.5-.216 1.957-.18 2.314.036.356-.036 1.316-.036 1.316l1.618 1.39zM85.208 71.454s-.396-.748-.396-.854c0-.107 1.007-1.246 1.115-1.246.108 0 1.438-2.243 1.762-2.42.323-.178 0-1.494 0-1.744s-1.656-1.745-1.943-2.03c-.288-.284-1.942-1.814-2.12-1.957-.18-.143-.613-.498-.793-.57-.18-.07.216 2.813.252 2.955.036.142.576-.64.576-.64s1.078.39 1.222.498c.144.107 2.122 1.922 2.122 1.922s-.18.854-.18 1.068c0 .214-.36.89-.503.96-.144.072-3.345-2.42-3.345-2.42l2.733 2.848s-.36.89-.574 1.103c-.216.214-.683.57-.683.57l-2.338-1.068 1.51 1.53-.107.39h-1.87c-.468-.034-1.618-.177-1.618-.177-.18-.07-1.906-1.032-1.906-1.032l.79 1.318s-.43.32-.646.32c-.216 0-.9-.57-.9-.57-.18 0-.683 1.246-.683 1.353 0 .108 1.15.5 1.33.5.18 0 7.193-.606 7.193-.606zM77.242 64.07s-.518 1.196-.346 1.253c.173.058.69.114.69-.057 0-.17.06-.684.06-.684l-.404-.513zM50.05 64.716l.46.15.27-.38-.73-.15-.077.34.077.04zM62.936 54.296l-.288.2s.058.256.058.34c0 .087.115.23.115.23s.46 0 .548-.086c.086-.085-.058-.427-.058-.427l-.374-.257zM46.874 67.767z"/>
        </g>
    </defs>
    <g class="monster-payments">
        <use xlink:href="#monster-payments_body-background" fill="yellow"/>
        <use xlink:href="#monster-payments_body-detail"     fill="black"/>
        <use xlink:href="#monster-payments_left-eye"        fill="black">
            <animateTransform attributeName="transform" type="translate" values="0;2;0;-2;0" dur="0.2s" repeatCount="indefinite"/>
        </use>
        <use xlink:href="#monster-payments_right-eye"       fill="black">
            <animateTransform attributeName="transform" type="rotate" values="0;2;0;-2;0" dur="1s" repeatCount="indefinite"/>
        </use>
        <use xlink:href="#monster-payments_mouth"           fill="black"/>
    </g>

</svg>
