<svg class="monsters" viewBox="0 0 179 109" style="background-color:#ffffff00"
    xmlns="http://www.w3.org/2000/svg" width="179" height="109">
    <g class="monster-security">
        <g class="monster-security__eyes">
            <path
                d="M88.61 36.34c-.387-1.533-1.702-13.13-1.47-14.708.442-1.48 1.415-2.742 1.84-4.23.712-1.92.6-3.996.42-5.993-.082-1.39-1.267-2.312-2.18-3.215-1.88-1.586-4.144-3.042-6.705-2.963-2.235.102-4.775-.023-6.538 1.59-2.576 1.777-3.443 4.95-4.175 7.81-.434 1.56.175 3.143.82 4.555.728 1.685 2.357 2.682 3.785 3.723 1.753 1.222 3.984 1.167 6.005 1.563 1.105.238 2.77 11.234 3.528 11.982-.408.16-.822.286-1.24.395l5.91-.51zm14.255-1.33c.17-2.34.367-14.995 2.512-16.334 1.696-1.17 3.455-2.358 4.628-4.094 1.948-2.418 1.653-6.02.032-8.527-1.27-1.958-2.8-4.02-5.138-4.75-2.717-.8-5.512.145-8.117.91-2.358 1.26-4.52 3.523-4.66 6.316-.228 2.447.548 4.992 2.2 6.83.992 1.132 2.242 2.038 3.032 3.336.968 1.54 1.49 13.304 1.682 15.103l-.002 1.545 3.83-.335z"
                stroke="#000" fill="#fff"/>
            <path
                d="M100.25 35.24c.057-.41.073-.825.067-1.222-.122-2.038-.822-14-1.642-15.848-1.403-2.113-3.725-3.556-4.73-5.95-.43-1.152-.65-2.39-.625-3.62.067-2.197 1.642-4.317 3.817-4.86 1.916-.537 3.797-1.66 5.857-1.32 1.678.102 3.094 1.115 4.33 2.164-2.194-.578-4.358-1.974-6.7-1.354-1.94.62-4.303 1.132-5.27 3.146-1.284 2.6-.735 6.133 1.433 8.12 1.78 1.37 4.107 2.194 6.366 1.692 2.264-.186 4.072-1.816 5.166-3.69.97-1.778.457-3.847.556-5.762 1.296 1.907 1.785 4.466.612 6.552-1.11 1.626-2.59 3.026-4.32 3.984-.965.562-2.08 1.128-2.49 2.243-.608 1.818-.925 13.714-1.163 15.615l1.35-.12c.17-2.34.367-14.995 2.512-16.334 1.696-1.17 3.455-2.358 4.628-4.094 1.948-2.418 1.653-6.02.032-8.527-1.27-1.958-2.8-4.02-5.138-4.75-2.717-.8-5.512.145-8.117.91-2.358 1.26-4.52 3.523-4.66 6.316-.228 2.447.548 4.992 2.2 6.83.992 1.132 2.242 2.038 3.032 3.336 1.244 1.976 1.752 14.33 1.765 16.644l1.13-.1zm5.555-21.63c-3.483.786-7.746-1.32-8.366-5.058-.037-.993-.275-2.458.842-2.948.763-.404 1.528-.803 2.33-1.128 1.368-.46 2.816.092 4.124.527 3.48 1.147 4.21 6.686 1.07 8.608zm-20.62 23.025c-.89-1.97-3.854-13.474-6.053-13.598-2.816-.238-5.62-1.567-7.287-3.882-1.553-2.184-1.05-5.084-.1-7.402.678-1.9 2.002-3.613 3.855-4.49 3.225-.908 6.934-.808 9.74 1.226 2.046 1.245 3.4 3.587 3.02 6.012.163 3.173-2.763 5.492-2.624 8.658.05 1.112 1.246 12.21 1.514 13.295l1.36-.12c-.387-1.532-1.702-13.125-1.47-14.703.442-1.48 1.415-2.742 1.84-4.23.712-1.92.6-3.996.42-5.993-.082-1.39-1.267-2.312-2.18-3.215-1.88-1.586-4.144-3.042-6.705-2.963-2.235.102-4.775-.023-6.538 1.59-2.576 1.777-3.443 4.95-4.175 7.81-.434 1.56.175 3.143.82 4.555.728 1.685 2.357 2.682 3.785 3.723 1.753 1.222 3.808 1.42 5.83 1.816 1.104.238 2.944 10.98 3.703 11.73-.407.157-.82.286-1.235.394l2.48-.215zM101.62 6.758c-.845 1.05-.877 2.485-.936 3.767 1.31-.526 1.444-2.033 2.076-3.122 1.39.483 1.793 1.875 2.083 3.17l1.01-.123c.044-1.052.235-2.243-.55-3.094-.666-1.282-2.687-1.726-3.684-.598zM84.614 9.996c-1.825-1.64-4.52-1.258-6.735-.858-2.05.61-3.77 2.128-4.753 4.004-1.44 3.117.186 7.283 3.566 8.304 3.095.847 7.055.716 9.286-1.907 1.32-1.524 1.096-3.696.584-5.496-.438-1.425-.717-3.06-1.95-4.048zm-1.367 8.41c-2.625 1.786-6.334 1.315-8.58-.86-.6-1.25-1.103-2.787-.383-4.1.81-1.753 2.63-2.655 4.39-3.208 1.62-.455 3.614-.416 4.923.78 1.403 1.114 1.81 3.01 2.012 4.695.17 1.4-1.44 1.99-2.363 2.694zM79.85 12.686c-1.108.755-1.005 2.264-1.272 3.435l1.05-.146c.338-.914.675-1.827 1.05-2.726.673.174 1.44.198 1.988.68.373.852.58 1.766.88 2.65.34-.45.715-.877.993-1.367.44-2.298-2.975-4.06-4.69-2.524z"
            />
        </g>
        <g class="monster-security__body">
            <path
                d="M107.85 84.004c-.07-.398-.236-.97-.428-1.563-.126-.758-.15-1.533-.1-2.307 1.89-.36 3.808-.538 5.73-.68 1.36-.365 2.683-.86 4.027-1.274 2.754-.813 5.443-2.613 6.53-5.36 2.44-4.703 1.298-10.148 1.092-15.196-.545-3.945.115-7.937-.5-11.877-.045-3.593-.67-7.154-1.727-10.58-.89-2.604-2.14-5.32-4.625-6.76-1.52-.948-3.35-.966-5.05-1.316-3.28-.8-6.68-.627-10.012-1.09l.062-.76-3.815.11.002.497c-3.71.84-7.558.73-11.34.837-.085-.328-.17-.66-.247-.994l-5.09.15c.193.21.383.42.58.615-3.75 1.456-7.94.538-11.63 2.16-1.535.617-3.508.87-4.335 2.493-1.833 2.872-1.957 6.374-2.29 9.662-.763 4.66-1.464 9.345-1.627 14.07-.43 4.533-.346 9.178.927 13.586.43 1.86 1.18 3.67 2.47 5.12 1.287 1.827 3.478 2.6 5.113 4.054 2.886 1.895 6.645 1.26 9.65 2.94-.182 1.11.256 2.714-.935 3.38-1.918.743-4.202 1.036-5.53 2.783-.198 1.25-.123 2.664.533 3.777 1.086 1.392 3.058.74 4.573 1.06 3.16.482 6.628.41 9.29-1.568.776-.89 1.27-1.898 1.59-2.967.17-.254.253-.432.172-.463-.014-.004-.025-.014-.037-.032.468-1.903.448-3.975.518-5.922l.135-.536c1.614-.237 3.247-.015 4.757.603.36 2.933.61 5.994 2.104 8.62.83 1.39 2.456 2.1 4.008 2.332 3.26.403 6.572.392 9.83-.052 1.013-.107 2.247-.736 2.238-1.892.402-1.728-.437-3.61-1.972-4.477-1.43-.555-2.99-.53-4.48-.796l-.165-.386z"
                stroke="#000" fill="#fff"/>
            <path
                d="M123.668 60.438c-2.14 1.352-4.084 3.018-5.662 4.996l-1.13-.925c1.742-2.672 4.115-4.9 6.59-6.894.075.933.138 1.876.202 2.822zm.09 1.167c-.022.573.005 1.16-.094 1.737-1.002.97-2.005 1.97-3.174 2.745-.504.047-1.008-.01-1.507-.03 1.198-1.853 2.84-3.376 4.776-4.452zm-1.35-4.62c-2.223 2.08-4.402 4.208-6.188 6.685-.513-.468-1.022-.93-1.523-1.396 1.515-2.6 4-4.392 6.025-6.565.818-.864 1.71-1.65 2.605-2.43-.036 1.286.262 2.813-.92 3.703zm.107-4.61c-2.67 3.2-5.997 5.828-8.458 9.21-.33-.648-.652-1.294-.97-1.942 3.452-3.29 6.282-7.245 10.224-10-.072.947-.112 1.987-.795 2.732zm.075-3.898c-1.456 1.71-3.233 3.106-4.76 4.748-1.84 1.752-3.46 3.718-5.293 5.48-.083-1.064-.34-2.287.478-3.155 3.113-3.417 6.35-6.745 9.973-9.64-.095.842.278 1.887-.398 2.567zm-.103-7.525c-1.785 1.475-3.6 2.923-5.193 4.617-1.614 1.712-3.857 3.1-4.415 5.542 2.608-2.152 4.935-4.625 7.448-6.884.76-.69 1.65-1.215 2.58-1.646.203 2.686-2.632 3.877-4.18 5.595-2.46 2.033-4.346 4.604-6.592 6.844-.187-2.595.55-5.143 1.582-7.497.812-1.487 2.212-2.532 3.333-3.778 1.382-1.563 3.294-2.76 5.437-2.793zm-56.514 10.21l1.05-.153c-.367.656-.728 1.317-1.114 1.965.01-.61.035-1.21.063-1.812zm.067 3.953c.9-1.42 1.583-2.95 2.2-4.51.704-.03 1.406-.055 2.115-.074-1.22 3.067-3.065 5.836-4.688 8.698-.24-1.36-.433-2.898.373-4.113zm.84 9.488c-.28-1.088-.73-2.192-.577-3.33.47-2.157 1.754-3.997 2.808-5.896.918-1.58 1.734-3.216 2.676-4.78.927.03 1.854.084 2.78.143-2.525 4.64-4.938 9.346-7.686 13.863zm.644 1.437c1.514-3.596 3.96-6.718 5.543-10.278.79-1.782 1.98-3.332 3.085-4.923.68.193 1.357.39 2.04.6-1.517 2.888-3.248 5.658-4.958 8.436-1.492 3.022-2.89 6.097-4.59 9.01-.39-.943-.91-1.846-1.12-2.846zm3.28 1.33c1.77-3.49 3.428-7.04 5.455-10.39.942-1.516 1.642-3.32 3.15-4.373.897.052 1.355 1.014 2.02 1.508-2.427 3.324-4.398 6.956-6.867 10.247-1.648 2.22-2.968 4.657-4.618 6.872-.898-1.372.303-2.638.86-3.865zm.092 4.842c1.448-2.485 2.827-5.02 4.616-7.284 2.4-3.083 4.057-6.662 6.653-9.594.394.743.772 1.5 1.13 2.27-3.27 3.633-5.504 8.008-8.236 12.02-.975 1.274-1.925 2.56-2.753 3.936l-1.41-1.348zm2.4 2.12c1.72-2.67 3.496-5.305 5.235-7.967 1.51-2.684 3.282-5.23 5.317-7.54.382 1.066.987 2.174.816 3.345-.42.736-1.018 1.353-1.54 2.018-2.997 3.573-5.228 7.715-8.346 11.193l-1.482-1.047zm7.6-5.26c.987-1.663 2.307-3.095 3.647-4.48-.274 2.136-.824 4.304-2.01 6.13-1.576 2.06-3.446 4.126-6.03 4.872 1.42-2.208 3.073-4.253 4.394-6.523zm8.932 16.046c-.656.903-1.56 1.585-2.417 2.29-.2-.58-.38-1.158-.56-1.736 1.097-1.064 2.012-2.3 3.097-3.37-.008.932.068 1.886-.12 2.816zm.58-5.768c-1.073 1.725-2.238 3.433-3.9 4.665.087-.828-.028-1.77.596-2.422 1.623-1.94 3.404-3.748 4.924-5.777 2.05-2.68 4.612-4.91 6.787-7.48.56-.888 1.665-.75 2.576-.844-2.798 4.66-6.933 8.308-10.98 11.858zm3.775-9.302c1.092-.958 1.912-2.41 3.503-2.568-.816 1.294-1.75 2.533-2.883 3.573-1.856 1.587-3.308 3.565-4.927 5.38-1.002 1.464-2.12 2.877-3.643 3.838.307-.928.557-1.92 1.228-2.666 2.242-2.523 4.24-5.253 6.723-7.556zm-6.626 5.472c.927-2.394 2.708-4.384 4.855-5.776-1.67 1.883-3.12 3.95-4.855 5.776zm8.005 2.634c-.49.73-1.388.713-2.167.824 1.74-2.758 4.505-4.657 6.434-7.27 1.028-1.498 2.41-2.68 3.836-3.79.652.207 1.3.424 1.956.646-1.483 1.627-3.193 3.023-4.67 4.653-1.847 1.594-3.81 3.062-5.39 4.937zm4.688-2.84c2.334-1.622 3.83-4.226 6.37-5.587.883-.482 1.71.372 2.482.705-2.562 3.34-6.267 5.492-9.042 8.617-.656.667-1.365 1.277-2.057 1.903-.445-.65-.92-1.28-1.403-1.892 1.18-1.278 2.222-2.717 3.65-3.746zm-.115 5.405c2.017-1.952 3.996-3.955 6.18-5.73 1.313-1.05 2.326-2.56 3.96-3.14.465.433.804.975 1.21 1.466-3.484 2.45-6.82 5.11-9.886 8.063-1.198 1.09-2.4 2.21-3.847 2.967.076-1.58 1.38-2.576 2.382-3.628zm.927 9.122l-1.51-1.044c2.31-1.69 4.373-3.703 6.766-5.27l.33 1.68c-1.928 1.46-3.872 2.922-5.586 4.634zm11.78-2.548c.173.815.583 1.725.054 2.504-.64.487-1.472.57-2.22.79.756-1.074 1.448-2.194 2.167-3.294zm-1.97.264c-.498 1.278-1.324 2.422-2.5 3.162.643-1.186 1.442-2.303 2.5-3.162zm-1.364-.44c-.784.995-1.56 2.004-2.342 2.997-.49.672-1.436.3-2.128.404 1.336-1.32 2.796-2.534 4.47-3.4zm-1.674-.884c-1.57 1.625-3.24 3.35-5.32 4.31 1.263-1.933 3.3-3.262 5.32-4.31zm-1.58-7.308c-.118 1.128-.09 2.303-.48 3.39-2.287 1.7-4.466 3.538-6.673 5.34-.253-.532-.496-1.058-.734-1.58 1.678-1.77 3.55-3.328 5.392-4.918 1.594-1.7 3.51-3.04 5.257-4.567-.06.643-.107 1.29-.123 1.944 1.086-.945 2.142-1.947 3.443-2.595l.23 2.333c-2.108.194-4.206.432-6.31.653zm14.14-3.783c-1.93 1.283-4.17 2.01-6.385 2.64-.32-5.81-5.243-11.118-11.183-11.324-3.643-.69-7.683-.357-10.776 1.84-3.57 2.28-5.84 6.036-6.986 10.033-.493 3.873.313 7.85 2.104 11.327-3.11 1.643-6.677.753-9.99.49-1.47-.138-1.2-1.89-1.284-2.932 1.556-.945 3.396-1.166 5.035-1.874 1.776-1.427 1.28-4.02 1.744-6.01-1.933-.713-3.84-1.496-5.718-2.33 3.523-1.998 6.94-4.864 8.128-8.867.624-3.118 1.464-6.537-.016-9.547-1.106-3.15-2.67-6.426-5.65-8.198-2.422-1.044-5.118-.84-7.678-1.16-1.93-.277-3.822.234-5.708.55.553-3.548 1.094-7.117 1.153-10.71.252-1.67.864-3.255 1.302-4.878.365-1.428 1.502-2.445 2.496-3.462.7-.8 1.787-.985 2.776-1.21 3.58-.705 5.404-.75 8.83-2.163-.156-.674-.436-1.318-.816-1.898l-1.445.045c.227.196.444.402.655.61-3.75 1.456-5.986.876-9.675 2.5-1.535.615-3.508.87-4.335 2.49-1.833 2.873-1.957 6.375-2.29 9.663-.763 4.66-1.464 9.345-1.627 14.07-.43 4.533-.346 9.178.927 13.586.43 1.86 1.18 3.67 2.47 5.12 1.287 1.827 3.478 2.6 5.113 4.054 2.886 1.895 6.645 1.26 9.65 2.94-.182 1.11.256 2.714-.935 3.38-1.918.743-4.202 1.036-5.53 2.783-.198 1.25-.123 2.664.533 3.777 1.086 1.392 3.058.74 4.573 1.06 3.16.482 6.628.41 9.29-1.568 2.372-2.725 2.106-6.54 2.264-9.902 1.65-.266 3.326-.048 4.87.585.36 2.933.61 5.994 2.105 8.62.83 1.39 2.456 2.1 4.008 2.332 3.26.403 6.572.392 9.83-.052 1.013-.107 2.247-.736 2.238-1.892.402-1.728-.437-3.61-1.972-4.477-1.43-.555-2.99-.53-4.48-.796-.622-1.337-.784-2.8-.693-4.257 1.893-.36 3.81-.538 5.73-.68 1.36-.365 2.685-.86 4.03-1.274 2.754-.813 5.443-2.613 6.53-5.36 2.44-4.703 1.298-10.148 1.092-15.196-.545-3.945.115-7.937-.5-11.877-.045-3.593-.67-7.154-1.727-10.58-.89-2.604-2.14-5.32-4.625-6.76-1.52-.948-3.35-.966-5.05-1.316-3.28-.8-6.68-.627-10.012-1.09l.062-.76-1.355.04c-.08.655-.15 1.31-.223 1.963.466.134.927.304 1.416.375 3.268.21 6.58.17 9.794.907 2.1.454 4.636.458 6.104 2.28 2.07 2.467 3.137 5.624 3.694 8.758-3.58.52-6.012 3.355-8.362 5.808-1.745 1.79-2.35 4.294-2.835 6.66-.6 2.99.083 6.024.62 8.97 1.467 1.93 3.2 3.67 5.05 5.237 2.243 1.287 4.95 1.722 6.91 3.503-.683 1.993-1.483 4.122-3.268 5.403zm.964-8.356c.787-.77 1.622-1.49 2.496-2.164.04.768.072 1.54.104 2.32-.87.038-1.742-.017-2.6-.156zM86.085 25.73c.174.816.397 1.625.637 2.422 4.148-.02 8.288-.427 12.43-.574.646-.59.953-1.412 1.083-2.263l-1.115.035-.003.48c-3.733.858-7.61.748-11.42.854-.086-.328-.17-.66-.247-.994l-1.365.04zM111.33 41.56c-.29-2.88-1.48-5.558-3.02-7.98l-1.033-.063c-.024 2.984-1.694 5.547-2.565 8.32-1.102-1.384-2.076-2.97-3.67-3.84-1.09-.627-2.203-1.28-3.443-1.535-3.573-.298-7.35.66-10.05 3.08-1.357-1.542-2.506-3.298-3.106-5.27-.346-1.146-.056-2.4-.61-3.497-1.478 1.99-2.523 4.246-3.602 6.465-.684 1.444-.985 3.02-1.13 4.598-3-1.116-6.088-2.096-8.7-4.012-.394.55-.768 1.11-1.125 1.69 1.854.55 3.56 1.48 5.364 2.152 1.81.735 4.07.902 5.116 2.793 1.435-1.092 3.02.286 4.53.515.114 4.918 1.653 10.315 5.998 13.164 1.66.762 3.517 1.095 5.33 1.253 2.318-.336 4.648-1.024 6.633-2.303 2.41-1.7 3.74-4.52 4.19-7.367.13-1.62-.194-3.228-.48-4.815 2.89-.906 5.594-2.303 8.374-3.49 1.906-.957 4.026-2.14 4.825-4.225-1.344.325-2.378 1.25-3.483 2.01-1.353.95-2.85 1.658-4.343 2.358zm-8.558.223l1.585 1.02c-.985 1.35-2.667 1.702-4.222 1.97.68-1.155 1.642-2.1 2.637-2.99zm-1.937-1.776c.887.11.768 1.214.267 1.692-.93 1.106-1.778 2.278-2.526 3.517-.604.016-1.21.03-1.805.055 1.01-1.986 2.362-3.814 4.065-5.265zm-2.326-1.69l1.088 1.096c-1.52 2.01-3.324 3.84-4.402 6.148l-1.42-.11c1.118-2.655 3.02-4.85 4.733-7.133zm-1.317-.54c-1.138 1.885-2.407 3.685-3.723 5.445-.51.665-1.01 1.385-1.785 1.765-.767-.72.044-1.638.446-2.306.94-1.317 1.65-2.797 2.71-4.03.564-.7 1.554-.658 2.353-.872zm-3.618.306c-.995 1.883-2.157 3.68-3.53 5.318-.213-.502-.464-.985-.61-1.507 1.01-1.578 2.095-3.494 4.14-3.81zm-13.303 4.13c.334-2.797 1.31-5.464 2.656-7.93 1.16 3.93 4.383 6.653 6.287 10.178-1.114-.047-2.238-.154-3.28-.573-1.832-.73-3.766-1.147-5.663-1.673zm5.44 3.23c.402.106.808.22 1.214.34l-1.09 1.33c-.048-.563-.088-1.117-.124-1.67zm2.462.75c.588-.205 1.228-.05 1.845-.066-1.023 1.777-2.196 3.473-3.56 5-.6-1.823.274-3.773 1.714-4.933zm.294 8.33l-1.098-1.698c1.002-2.275 2.478-4.29 3.95-6.275.807.095 1.613.202 2.425.313-1.83 2.508-3.41 5.18-5.277 7.66zm.966.794c1.968-2.955 3.953-5.907 6.188-8.672l2.815.004c-1.654 2.294-3.46 4.49-4.955 6.895-.748 1.155-1.75 2.113-2.69 3.11-.462-.443-.916-.886-1.358-1.337zm5.326 2.552c-.868-.135-1.728-.306-2.582-.455 2.358-3.557 4.927-6.976 7.52-10.363.58-.894 1.646-1.118 2.612-1.365-1.133 2.12-2.64 4.016-3.778 6.137-1.133 2.09-2.54 4.012-3.772 6.045zm1.454.23c1.662-3.012 3.57-5.885 5.317-8.848.89-1.48 1.802-3 3.257-4.004 0 .76.247 1.607-.226 2.29-1.507 2.52-3.316 4.852-5.208 7.09-1.038 1.18-1.51 2.936-3.138 3.47zm2.918-.962c1.05-1.912 2.677-3.407 3.866-5.22.632-.972 1.35-1.89 2.163-2.713-.24 3.513-2.612 6.836-6.028 7.933zm5.81-13.37c1.297-2.306 1.945-4.898 3.166-7.24 1.05 1.702 1.7 3.62 1.78 5.626-1.648.543-3.315 1.02-4.945 1.614z"/>
            <path
                d="M82.898 22.865L83 27l3 1s.02-4.728 0-5c-.02-.272-3.102-.135-3.102-.135zM100 23h2v7h-4l2-3v-4z"
                fill="#fff"/>
        </g>
    </g>
    <path
        d="M125.543 65.69c-.542.104-9.406.488-9.873.31-.467-.18-.614 5.452-.614 5.452l-5.577-.196-7.764 3.455-6.51 4.64-4.652-1.857-3.72-1.855 4.65-5.565s-6.077-5.234-6.217-4.807c-.14.427-7.1-.427-6.944 0 .157.427-7.303 2.952-7.303 2.952l-3.112 6.326-11.804-.277L.268 61.725l.64 46.687 177.456.178v-41.3l-44.09-6.492-10.232-.928 3.512 2.12s-1.47 3.597-2.01 3.7z"
        fill="#444"/>
    <g opacity=".6">
        <path
            d="M48.106 53.854l2.22.367.002 2.322 2.344.122 1.11 1.1 3.95-.61 3.995-.193-1.035 1.903-3.33-.366-3.21.733-2.22-2.2-2.345.123.247-2.322-1.728-.976zM59.37 64.69l.022.787-2.614.342 2.418 1.937.754 3.762-5.066 1.71-.806.91s3.224.343 3.685.343c.46 0 6.333-.114 6.333-.114l3.914.113 1.843 2.507 1.496 2.51 5.296-1.483 11.86-1.254 4.835 2.166 3.11 3.19 2.648 3.08 4.145-1.14 8.865-1.597 7.715-4.788-1.267-2.508V71.29l4.376.115 3.223-2.28 4.145.456-2.648-2.165-3.684.114-8.75-.23.402-1.538 5.527.456 6.966.114 7.6 4.73 10.19.8-9.846.34-5.296-1.082-3.856-.684-2.994 1.88-3.915.798.403 2.964.634 1.654 1.842.114L136 82.52s-9.557-1.88-9.384-1.824c.173.057.46 1.368.46 1.368l2.994 1.54.288 3.59 1.497 1.653-2.534 2.394 3.34.628h-4.72l3.05-2.965-1.38-1.368-.634-3.647-2.706-1.14-1.21-2.508-2.934-1.37-2.88 1.028-5.93 4.73-2.992.23-5.296.455-3.282 1.026-3.972 3.19.633 1.425 3.8.228 1.842.4 2.532 2.05 3.11.23 4.086.455 8.405 7.98s-8.117-6.554-8.405-6.67c-.288-.113-2.88-.397-3.05-.397-.174 0-4.146.114-4.146.114l-2.015-1.766-2.648-1.14.17.912-.517 1.197-3.742.968-.17 2.395-9.385 3.876.748 2.565-2.072.97 1.497-1.254-.806-2.45 9.328-3.992-.058-2.508 2.936-.57 1.267-.968-.46-1.31s-1.843-.06-2.074-.06c-.23 0-2.303-.853-2.303-.853l-1.67.57-3.05 1.14-1.958 1.88-1.498.97-2.188.17-1.497 1.483.98-2.053 2.705-.17.806-.855 1.784-1.71 2.88-1.882 1.266-1.367 1.21-1.71 1.38-1.938-2.763-3.76s-3.57-2.51-3.742-2.567c-.173-.056-4.72-.91-4.72-.91l-14.03 2.086-1.392 1.41-.55 1.508.55 1.636s3.37 2.147 3.628 2.21c.26.066 2.85.867 2.85.867l1.1 1.86 1.587.257 1.295.962-2.655 2.66 2.007-2.213s-.42-.705-.55-.737c-.13-.032-2.202-.32-2.332-.32-.13 0-.032-.93-.032-.93s-.842-.803-.94-.803c-.096 0-2.265-.768-2.395-.8-.13-.032-1.522.385-1.522.385l.1 2.02-1.07 1.89-3.368 1.09-1.683 4.2.582-4.52s2.072-1.443 2.266-1.475c.195-.032 2.202-1.603 2.202-1.603s-.81-2.18-.907-2.212c-.097-.03-3.01-4.103-3.14-4.103-.13 0-2.656.383-2.753.383-.097 0-3.723 1.7-3.723 1.7l-.745 1.763-1.036 1.602-3.14 1.956s1.748-1.38 1.877-1.443c.13-.063 1.522-1.858 1.522-1.858l1.004-3.014s3.107-1.12 3.237-1.12c.13 0 3.173-1.733 3.27-1.733.097 0 2.132-2.763 2.132-2.85 0-.085-.576-1.452-.576-1.452l-1.152-1.625-1.698-.798-4.087.598-4.002.115-1.583 1.225-1.727.513.173 1.284-.98 1.51-1.783.485-2.504.113-2.562 2.308s1.785-2.535 1.93-2.62c.143-.086 2.705-.257 2.906-.286.202-.028 1.21-.428 1.296-.484.086-.057 1.036-.912 1.036-.912s-.115-1.168-.058-1.31c.058-.144 1.44-1.056 1.44-1.056l1.18-.996-2.504-.457s-1.238 1.595-1.21 1.68c.03.086-1.9.343-1.986.343-.086 0-4.116-.684-4.202-.713-.086-.03-9.73.114-9.73.114l8.644-1.222s1.84-1.03 1.946-1.082l3.278-1.504 6.397-2.322-.807-2.006 1.68-1.003s-1.787-1.135-1.894-1.213c-.107-.08 4.54-.66 4.352-.687-.187-.026-4.05.158-4.05.158s-1.84-.29-1.947-.29c-.106 0-2.85.343-2.85.343l-1.094.766-.64 1.082s-1.118.897-1.198.95c-.08.052-1.76.448-1.76.448l-.905-.422-.853-.528-1.546.344-3.693.343 1.728-.368 2.098-.61 1.975-.244.617.855 2.097-.244 1.233-1.345.864-1.1 1.974-.733 1.605-.367-2.344-.122-2.343.61-2.715.368-.74-.733.74-1.465-1.234-.123-2.22.122-2.84.243 3.333-.732 1.464-.107 1.868-.137.247 1.098-.248 1.344 3.578-.49 2.592-1.22 2.468.366 1.357 1.466 2.714-.367-.62-.366zM102.322 82.69l4.72.57s.806.457.46.457c-.345 0-8.635 2.507-8.635 2.507l-4.145-5.7.69-1.937 1.613-1.71 4.03-1.938 6.678-3.08 2.303-1.025s1.612-.342 2.072-.114c.46.23 3.34 1.37 3.34 1.37l2.993 2.735 1.728 3.078s-1.15-1.026-1.727-1.14c-.575-.114-4.835-4.104-4.835-4.104l-1.957-1.028s-1.497.23-1.957.23c-.46 0-9.096 4.673-9.096 4.673l-2.532 1.368 2.993 4.902 1.267-.114zM99.966 78.706l2.34 4.676.645-.508-2.984-4.168zM102.327 78.883l.557 1.323.4-.044-.957-1.28zM103.975 79.126l.49.617-.245-1.302-.245.686zM106.514 78.84l.58-.045"/>
        <path
            d="M115.268 76.435l-.09.75 1.026-.154-.936-.595zM117.35 72.38c.062.085 1.395 1.342 1.395 1.342l-.17 1.32s-4.908-2.787-4.887-2.85c.022-.062 1.235-4.56 1.235-4.56l2.426 4.75zM116.523 66.977l.762 3.77-.02-3.75-.742-.02zM118.385 67.186l.254 3.31.02-3.456-.275.146zM119.676 66.204l.338 3.373v-3.52l-.338.147zM121.326 67.227c.043.064.424 4.274.424 4.274l.232-4.356-.656.083zM123.442 67.375l.34 3.603.337-3.708-.742.02.064.085zM125.03 68.78l.04-2.64-.277.05-.082.014.32 2.577zM125.98 67.25l.53.02-.212 2.262-.317-2.283zM69.805 76.006l.683-5.198s.972-.96 1.08-1.033c.107-.07 5.25-2.527 5.79-2.67.538-.142 2.804-.748 3.343-.818.54-.072 4.136.284 4.136.284s.108 2.102.108 2.21c0 .105-.79 1.78-.97 1.957-.18.178-4.963 3.667-5.107 3.738-.144.07-5.106 1.958-5.358 2.136-.253.18-1.44 1.283-1.69 1.354-.253.072-1.223.285-1.223.392 0 .107 1.186.534 1.186.534l4.315-.64s6.832-1.07 6.94-1.105c.11-.035-2.337-.676-2.337-.676l-.43-1.14.323-.784 1.438-.32s3.058-2.92 3.274-3.062c.215-.142.755-1.175.755-1.175s.215-2.458.215-2.565c0-.107-.36-1.39-.36-1.495 0-.107-.863-.712-1.007-.748-.144-.035-3.02-.177-3.452-.177-.43 0-4.28 1.103-4.603 1.174-.323.07-4.53 1.46-5.07 1.673-.54.213-1.69 1.068-1.834 1.246-.145.177-1.26 1.388-1.547 1.886-.288.5-.216 1.957-.18 2.314.036.356-.035 1.317-.035 1.317l1.617 1.39zM87.893 76.397s-.396-.748-.396-.855c0-.106 1.007-1.245 1.115-1.245.108 0 1.438-2.244 1.762-2.42.324-.18 0-1.496 0-1.745 0-.25-1.654-1.746-1.942-2.03-.287-.285-1.942-1.815-2.12-1.958-.18-.143-.613-.5-.793-.57-.18-.07.215 2.813.25 2.955.037.14.577-.642.577-.642s1.08.392 1.223.5c.143.106 2.12 1.92 2.12 1.92s-.18.856-.18 1.07c0 .214-.36.89-.502.96-.144.072-3.344-2.42-3.344-2.42l2.732 2.848s-.36.89-.575 1.104c-.215.213-.682.57-.682.57L84.8 73.37l1.51 1.532-.107.39h-1.87c-.468-.033-1.618-.177-1.618-.177-.18-.07-1.906-1.03-1.906-1.03l.79 1.316s-.43.32-.647.32c-.216 0-.9-.568-.9-.568-.18 0-.682 1.245-.682 1.352 0 .107 1.15.5 1.33.5.18 0 7.193-.607 7.193-.607zM79.927 69.01s-.518 1.197-.345 1.255c.172.057.69.114.69-.058 0-.17.058-.683.058-.683l-.403-.513zM52.735 69.657l.46.15.27-.378-.73-.154-.077.343.077.037zM65.62 59.236l-.287.2s.058.255.058.34c0 .086.116.23.116.23s.46 0 .547-.086c.086-.086-.058-.428-.058-.428l-.374-.256zM49.56 72.71z"
        />
    </g>
</svg>
