<svg class="monsters" viewBox="0 0 178 108" style="background-color:#ffffff00" xmlns:xlink="http://www.w3.org/1999/xlink" xmlns="http://www.w3.org/2000/svg" width="178" height="108">
    <defs>
        <g id="monster-trends_ground" opacity=".6">
            <path id="shore" d="M132.645 48.282l-2.28.374v2.37l-2.406.125-1.14 1.124-4.052-.624-4.1-.195 1.06 1.942 3.42-.374 3.292.748 2.28-2.245 2.405.125-.253-2.37 1.773-.998zM121.087 55.174l-.023.802 2.682.35-2.482 1.978-.774 3.842 5.2 1.746.826.932s-3.308.35-3.78.35c-.474 0-6.5-.118-6.5-.118l-4.017.117-1.89 2.56-1.537 2.562-5.436-1.513-12.17-1.28-4.962 2.21-3.19 3.26-2.718 3.143-4.254-1.164-9.098-1.63-7.916-4.888 1.3-2.56v-3.958l-4.49.116-3.31-2.328-4.253.465 2.717-2.212 3.78.117 8.98-.233-.412-1.573-5.672.466-7.148.117-7.8 4.83-10.456.815 10.103.35 5.434-1.106 3.958-.7 3.072 1.92 4.018.815-.414 3.027-.65 1.69-1.89.114-13.47 4.773s9.807-1.92 9.63-1.863c-.178.058-.473 1.397-.473 1.397l-3.072 1.57-.295 3.668-1.536 1.688 2.6 2.445-3.428.64h4.845l-3.132-3.027 1.418-1.397.65-3.724 2.776-1.164 1.24-2.56 3.014-1.398 2.954 1.048 6.085 4.832 3.072.232 5.435.466L77.6 77.28l4.076 3.26-.65 1.453-3.9.233-1.89.408-2.6 2.095-3.19.232-4.194.465-8.625 8.15s8.33-6.694 8.625-6.81c.296-.118 2.954-.408 3.13-.408.178 0 4.255.115 4.255.115l2.068-1.804 2.717-1.163-.177.93.532 1.224 3.84.99.177 2.445 9.63 3.957-.768 2.62 2.126.99-1.535-1.282.827-2.502-9.57-4.075.058-2.56-3.013-.582-1.3-.99.472-1.338s1.89-.058 2.127-.058c.235 0 2.362-.873 2.362-.873l1.713.583 3.13 1.164 2.01 1.92 1.536.99 2.246.175 1.536 1.513-1.005-2.096-2.776-.175-.826-.872-1.832-1.747-2.953-1.92-1.3-1.397-1.242-1.747-1.418-1.98 2.836-3.84s3.663-2.562 3.84-2.62c.177-.058 4.844-.93 4.844-.93l14.397 2.13 1.428 1.44.565 1.54-.565 1.67s-3.455 2.19-3.72 2.257c-.267.066-2.925.884-2.925.884l-1.13 1.898-1.628.263-1.33.982 2.726 2.717-2.06-2.26s.432-.72.564-.752c.134-.033 2.26-.327 2.393-.327s.033-.95.033-.95.864-.82.964-.82c.1 0 2.326-.784 2.458-.817.133-.032 1.562.393 1.562.393l-.1 2.063 1.097 1.93 3.454 1.114 1.728 4.29-.598-4.617s-2.126-1.473-2.326-1.506c-.2-.032-2.26-1.636-2.26-1.636s.832-2.226.93-2.26c.1-.03 3.09-4.19 3.224-4.19.133 0 2.725.394 2.825.394.1 0 3.82 1.735 3.82 1.735l.765 1.8 1.063 1.637 3.223 1.997s-1.794-1.407-1.927-1.472c-.132-.066-1.56-1.898-1.56-1.898l-1.03-3.078s-3.19-1.145-3.323-1.145-3.257-1.77-3.356-1.77c-.1 0-2.188-2.82-2.188-2.908 0-.09.59-1.485.59-1.485l1.183-1.66 1.742-.814 4.195.612 4.106.117 1.624 1.25 1.773.524-.177 1.31 1.004 1.542 1.83.495 2.57.117 2.63 2.357s-1.83-2.59-1.98-2.677c-.147-.087-2.775-.262-2.982-.29-.207-.03-1.24-.438-1.33-.496-.088-.057-1.063-.93-1.063-.93s.118-1.193.06-1.338c-.06-.146-1.478-1.078-1.478-1.078l-1.212-1.017 2.57-.467s1.27 1.63 1.24 1.717c-.03.088 1.95.35 2.04.35.088 0 4.223-.698 4.31-.728.09-.03 9.986.115 9.986.115l-8.87-1.247s-1.888-1.05-1.997-1.105l-3.364-1.536-6.565-2.37.83-2.05-1.724-1.023s1.833-1.16 1.942-1.24c.11-.08-4.658-.673-4.466-.7.19-.028 4.157.16 4.157.16s1.887-.296 1.996-.296c.11 0 2.927.35 2.927.35l1.122.783.656 1.106s1.15.916 1.23.97c.083.053 1.806.458 1.806.458l.93-.43.875-.54 1.585.35 3.79.35-1.773-.373-2.153-.622-2.027-.25-.633.873-2.152-.248-1.267-1.373-.885-1.123-2.026-.75-1.647-.373 2.406-.125 2.404.623 2.786.374.76-.75-.76-1.495 1.267-.126 2.28.126 2.91.248-3.418-.748-1.503-.11-1.917-.14-.253 1.123.253 1.373-3.672-.5-2.66-1.246-2.53.373-1.394 1.498-2.786-.375.64-.374zM77.01 73.554l-4.846.582s-.827.466-.472.466c.354 0 8.86 2.56 8.86 2.56l4.255-5.82-.71-1.98-1.653-1.744-4.136-1.98-6.853-3.143-2.363-1.047s-1.654-.35-2.127-.117c-.472.234-3.426 1.398-3.426 1.398l-3.073 2.794-1.773 3.143s1.182-1.047 1.773-1.164c.59-.115 4.962-4.19 4.962-4.19l2.008-1.048s1.536.233 2.01.233c.47 0 9.333 4.773 9.333 4.773l2.6 1.397-3.072 5.006-1.3-.116zM79.426 69.485l-2.4 4.775-.663-.52 3.063-4.255zM77.003 69.666l-.57 1.35-.413-.044.983-1.306zM75.312 69.913l-.503.63.25-1.33.252.7zM72.706 69.62l-.595-.044"/>
            <path id="rock" d="M63.723 67.166l.09.766-1.05-.157.96-.61zM62.435 57.508l-.782 3.85.022-3.828.76-.022zM60.524 57.721l-.26 3.382-.022-3.53.282.15zM59.2 56.72l-.348 3.443V56.57l.347.15zM57.506 57.764c-.044.065-.434 4.364-.434 4.364l-.24-4.45.674.086zM55.335 57.915l-.348 3.68-.347-3.788.76.022-.065.085zM53.706 59.35l-.043-2.696.285.05.084.015-.325 2.63zM52.73 57.786l-.543.02.217 2.31.325-2.33zM110.377 66.728l-.7-5.307s-.998-.98-1.108-1.054c-.112-.073-5.39-2.58-5.942-2.727-.554-.146-2.88-.765-3.432-.836-.554-.074-4.244.29-4.244.29s-.11 2.145-.11 2.255c0 .107.81 1.816.996 1.997.184.182 5.092 3.745 5.24 3.818.147.072 5.24 2 5.498 2.18.258.183 1.476 1.31 1.734 1.383.26.072 1.255.29 1.255.4 0 .11-1.218.545-1.218.545l-4.428-.654s-7.012-1.092-7.123-1.13c-.11-.035 2.4-.69 2.4-.69l.44-1.163-.33-.8-1.477-.326s-3.136-2.98-3.358-3.127c-.22-.145-.775-1.2-.775-1.2s-.22-2.508-.22-2.617c0-.11.368-1.418.368-1.527 0-.11.885-.727 1.033-.764.148-.036 3.1-.18 3.543-.18.444-.002 4.392 1.125 4.724 1.198.332.073 4.65 1.49 5.203 1.71.554.216 1.735 1.09 1.882 1.27.147.183 1.29 1.42 1.586 1.928.295.51.22 2 .184 2.363-.036.364.037 1.345.037 1.345l-1.66 1.418zM91.815 67.128s.406-.764.406-.873c0-.11-1.032-1.272-1.143-1.272-.11 0-1.476-2.29-1.808-2.472-.333-.18 0-1.525 0-1.78 0-.256 1.697-1.782 1.992-2.073.295-.29 1.993-1.853 2.177-2 .183-.145.627-.508.81-.58.185-.074-.22 2.87-.257 3.017-.037.145-.59-.655-.59-.655s-1.108.4-1.256.508c-.147.11-2.177 1.963-2.177 1.963s.185.873.185 1.092c0 .218.37.91.516.982.15.072 3.433-2.473 3.433-2.473L91.3 63.42s.368.91.59 1.127c.22.218.7.58.7.58l2.4-1.09-1.55 1.564.11.4h1.92c.478-.035 1.66-.18 1.66-.18.184-.073 1.955-1.055 1.955-1.055l-.812 1.345s.443.327.664.327c.222 0 .923-.58.923-.58.184 0 .7 1.27.7 1.38 0 .11-1.18.51-1.364.51-.185 0-7.38-.62-7.38-.62zM99.99 59.585s.532 1.222.354 1.28c-.177.06-.708.117-.708-.058 0-.174-.06-.698-.06-.698l.414-.525zM127.894 60.245l-.472.154-.276-.388.748-.156.08.35-.08.04zM114.67 49.603l.296.204s-.06.262-.06.35c0 .086-.117.232-.117.232s-.474 0-.562-.088c-.09-.088.06-.437.06-.437l.383-.262zM131.154 63.362z"/>
        </g>
        
        <path id="monster-trends_ground-paint"
            d="M53.18 56.195c.555.106 9.65.498 10.13.315.48-.183.63 5.568.63 5.568l5.724-.2 7.965 3.527 6.682 4.736 4.773-1.893 3.818-1.894-4.773-5.683s6.237-5.345 6.38-4.91c.144.437 7.287-.435 7.126 0-.16.437 7.495 3.016 7.495 3.016l3.194 6.46 12.114-.284 53.193-12.807-.63 47.673L0 100V57.828l44.22-6.63 10.5-.947-3.605 2.165s1.507 3.674 2.064 3.78z"/>
        
        <path id="monster-trends_left-arm-background" 
            d="M58.813 26.518c.097 2.303.78 4.51 1.487 6.68-.726 2.175-1.46 9.003-1.88 13.462-.02-.155-.046-.308-.08-.462-1.16-1.085-2.588-1.934-3.623-3.138-1.716-2.065-3.358-4.22-4.396-6.667-1.604-2.52-2.262-5.397-3.134-8.207-.568-2.33-1.626-4.632-1.52-7.082-.102-4.153.324-8.378 1.46-12.472 1.363 1.064 2.46 2.388 3.76 3.507 1.26-1.184 2.112-2.68 2.637-4.3l1.33.498c-.08 1.344-.1 2.692.087 4.02.99-1.024 1.884-2.134 2.944-3.117.258.684.557 1.384.426 2.122-.38 5.116-.52 10.225.503 15.156z"/>
        <path id="monster-trends_left-arm-detail" 
            d="M58.813 26.518c.097 2.303 3.513 6.81 4.22 8.982-.217.648-.452 1.055-.662 2.35-.58.32-3.878-1.015-4.488-.75-.065-1.13 1.07-1.527 1.833-2.182-.53-2.64-1.826-5.168-1.9-7.918-.108-1.705-.714-3.352-.79-5.077-.17-3.328.008-6.693-.043-10.082-.754.87-1.466 1.765-2.203 2.632l-.578-.34c-.247-1.026-.524-2.05-.872-3.054-.677.985-1.334 1.978-2.035 2.94-1.207-.95-2.216-2.1-3.45-3.032-.947 3.158-1.04 6.46-1.08 9.68.077 2.16.343 4.33 1.084 6.374 1.04 3.118 1.79 6.348 3.554 9.166.586 1.005 1.348 1.93 1.75 3.01.43-.302.876-.59 1.328-.876l.297.97-1.257.693c1.068.63 1.945 1.468 2.23 2.62.625-.288 1.273-.537 1.964-.688-.32.6-.7 1.168-1.19 1.66.462.384.925.764 1.398 1.135.656-.833.59-1.808.46-2.78.248-.73.527-1.457.773-2.192-.29 2.35-.547 4.87-.738 6.902-.02-.154-.046-.31-.08-.462-1.16-1.085-2.588-1.934-3.623-3.138-1.716-2.065-3.358-4.22-4.396-6.667-1.604-2.52-2.262-5.397-3.134-8.207-.568-2.33-1.626-4.632-1.52-7.082-.102-4.153.324-8.378 1.46-12.472 1.363 1.064 2.46 2.388 3.76 3.507 1.26-1.184 2.112-2.68 2.637-4.3l1.33.498c-.08 1.344-.1 2.692.087 4.02.99-1.024 1.884-2.134 2.944-3.117.258.684.557 1.384.426 2.122-.38 5.116-.52 10.225.503 15.156zm.474 12.227c-.46.198 2.353 2.703 1.892 2.89l-3.293-3.555 3.556 2.51-2.156-1.846zM57.402 39.79c.134.443.273.884.412 1.32-.954.012-1.91-.02-2.858-.122.665-.62 1.574-.892 2.446-1.198zM55.444 38.566l1.103.22-.034.985c-.426.007-.846.01-1.264.01.058-.406.125-.808.194-1.214zM56.338 37.838c.164-.418.338-.83.518-1.248l.905.754c-.094.167-.28.506-.37.674-.263-.046-.79-.134-1.052-.18z"/>
        
        <path id="monster-trends_right-arm-background"
            d="M119.356 26.518c-.097 2.303-.78 4.51-1.487 6.68.725 2.175 1.46 9.003 1.88 13.462.02-.155.045-.308.08-.462 1.16-1.085 2.588-1.934 3.623-3.138 1.715-2.065 3.357-4.22 4.396-6.667 1.603-2.52 2.26-5.397 3.133-8.207.57-2.33 1.627-4.632 1.52-7.082.103-4.153-.323-8.378-1.458-12.472-1.365 1.064-2.462 2.388-3.76 3.507-1.262-1.184-2.114-2.68-2.638-4.3l-1.332.498c.083 1.344.102 2.692-.085 4.02-.99-1.024-1.885-2.134-2.944-3.117-.258.684-.558 1.384-.427 2.122.38 5.116.52 10.225-.504 15.156z"/>
        <path id="monster-trends_right-arm-detail" 
            d="M119.356 26.518c-.097 2.303-3.512 6.81-4.22 8.982.217.648.453 1.055.663 2.35.58.32 3.877-1.015 4.487-.75.065-1.13-1.07-1.527-1.833-2.182.53-2.64 1.826-5.168 1.902-7.918.106-1.705.712-3.352.79-5.077.167-3.328-.01-6.693.04-10.082.756.87 1.467 1.765 2.204 2.632l.577-.34c.248-1.026.524-2.05.872-3.054.676.985 1.334 1.978 2.034 2.94 1.208-.95 2.216-2.1 3.45-3.032.947 3.158 1.04 6.46 1.08 9.68-.077 2.16-.343 4.33-1.084 6.374-1.04 3.118-1.79 6.348-3.555 9.166-.585 1.005-1.348 1.93-1.75 3.01-.43-.302-.876-.59-1.328-.876l-.297.97 1.257.693c-1.07.63-1.946 1.468-2.23 2.62-.626-.288-1.274-.537-1.964-.688.32.6.7 1.168 1.19 1.66-.463.384-.925.764-1.4 1.135-.654-.833-.588-1.808-.458-2.78-.25-.73-.528-1.457-.774-2.192.292 2.35.548 4.87.74 6.902.02-.154.045-.31.08-.462 1.16-1.085 2.588-1.934 3.623-3.138 1.715-2.065 3.357-4.22 4.396-6.667 1.603-2.52 2.26-5.397 3.133-8.207.57-2.33 1.627-4.632 1.52-7.082.103-4.153-.323-8.378-1.458-12.472-1.365 1.064-2.462 2.388-3.76 3.507-1.262-1.184-2.114-2.68-2.638-4.3l-1.332.498c.083 1.344.102 2.692-.085 4.02-.99-1.024-1.885-2.134-2.944-3.117-.258.684-.558 1.384-.427 2.122.38 5.116.52 10.225-.504 15.156zm-.474 12.227c.46.198-2.353 2.703-1.89 2.89l3.29-3.555-3.556 2.51 2.156-1.846zM120.767 39.79c-.133.443-.272.884-.41 1.32.952.012 1.908-.02 2.857-.122-.666-.62-1.574-.892-2.447-1.198zM122.726 38.566l-1.103.22.033.985c.426.007.847.01 1.265.01-.06-.406-.126-.808-.194-1.214zM121.832 37.838c-.164-.418-.34-.83-.52-1.248l-.903.754c.093.167.28.506.37.674.262-.046.79-.134 1.052-.18z"/>
        
        <path id="monster-trends_body-background" 
            d="M117.086 38.08c-.456-2.258-.935-4.552-2.19-6.542-1.325.53-2.376 1.496-3.496 2.342-.084-4.566.203-9.152-.43-13.696 4.246-3.61 5.587-9.757 4.103-14.926-.206-.954-.874-1.68-1.76-2.104-.697 1.395-1.196 2.902-2.147 4.168-.335.412-.678.835-1.04 1.244-.498.403-.9.664-.9.664s-1.352 2.132-3.59 1.514c-1.334-.952-2.432-2.23-3.966-2.917-2.584-1.19-5.368-2.082-8.217-2.427-1.494-.062-1.948.23-3.455.364-.467-.037-2.058.064-2.42.062-1.5-.01-3.314.242-5.058 1-1.722.594-3.367 1.39-4.876 2.43-.084-.002-.194-.012-.333-.035-2.026-.97-4.392-1.547-5.86-3.316-.733-.907-1.4-1.867-2-2.862-.454-.82-.697-1.397-.697-1.397l-.05.072C68.58 1.48 68.46 1.24 68.34 1c-.253.32-.54.616-.74.972-1.108 3.38-1.403 7.062-.337 10.49.522 2.223 2.136 3.97 3.62 5.657-.514 1.266-.944 2.58-1.113 3.938-.303 2.666-.8 5.325-.76 8.02.02 1.497.01 2.996-.083 4.493-.96-.355-1.857-.83-2.756-1.298l-.03-.02c-.628-.328-1.267-.653-1.925-.928-.648 1.834-1.51 3.587-2.136 5.425-.522 1.332-.798 2.78-1.56 4.013-1.496.705-4.207 15.174-2.658 13.154-.525 2.963-.315 5.974-.69 8.948-.3 3.79-.09 7.6.506 11.354.177 2.014.188 4.053.66 6.03.28.837.927 1.668 1.932 1.627 3.543.32 7.108.208 10.65.613.917-1.79 1.792-3.633 3.083-5.208 1.783-2.035 4.677-2.44 7.2-3.074 2.205-.602 4.45.137 6.684.102 3.335.44 6.755.276 10.036 1.092 1.692.733 2.355 2.54 3.198 4.004.945 1.503.768 3.37 1.677 4.89 4.195-1.475 8.78-1.434 13.128-.687 1.617.355 3.285.147 4.927.35.463-.805 1.115-1.543 1.295-2.472.794-3.74.203-7.578-.284-11.316-.582-3.78-.72-7.612-1.407-11.38-.314-3.156-.88-6.29-1.085-9.457-2.22-4.844-2.22-7.284-2.284-12.256z"/>
        <path id="monster-trends_body-detail" 
            d="M117.086 38.08c-1.055-2.054-.935-4.552-2.19-6.542-1.325.53-2.376 1.496-3.496 2.342-.084-4.566.203-9.152-.43-13.696 4.246-3.61 5.587-9.757 4.103-14.926-.206-.954-.874-1.68-1.76-2.104-.697 1.395-1.196 2.902-2.147 4.168-1.307 1.6-2.722 3.382-4.904 3.833-1.636-.958-2.825-2.537-4.592-3.328-2.584-1.19-5.368-2.082-8.217-2.427-5.528-.226-11.348.738-15.92 3.93-2.073-1.038-4.56-1.592-6.083-3.426C70.227 4.39 69.19 2.738 68.34 1c-.253.32-.54.616-.74.972-1.108 3.38-1.403 7.062-.337 10.49.522 2.223 2.136 3.97 3.62 5.657-.514 1.266-.944 2.58-1.113 3.938-.303 2.666-.8 5.325-.76 8.02.02 1.497.01 2.996-.083 4.493-1.645-.608-3.1-1.573-4.712-2.246-.648 1.834-1.51 3.587-2.136 5.425-.522 1.332-.798 2.78-1.56 4.013-1.496.705-4.207 15.174-2.658 13.154-.525 2.963-.315 5.974-.69 8.948-.3 3.79-.09 7.6.506 11.354.177 2.014.188 4.053.66 6.03.28.837.927 1.668 1.932 1.627 3.543.32 7.108.208 10.65.613.917-1.79 1.792-3.633 3.083-5.208 1.783-2.035 4.677-2.44 7.2-3.074 2.205-.602 4.45.137 6.684.102 3.335.44 6.755.276 10.036 1.092 1.692.733 2.355 2.54 3.198 4.004.945 1.503.768 3.37 1.677 4.89 4.195-1.475 8.78-1.434 13.128-.687 1.617.355 3.285.147 4.927.35.463-.805 1.115-1.543 1.295-2.472.794-3.74.203-7.578-.284-11.316-.582-3.78-.72-7.612-1.407-11.38-.314-3.156-.74-6.303-1.085-9.457-.51-4.682-1.452-10.636-2.284-12.256zm-58.112 7.978c-.058 1.218-.046 2.44-.188 3.654-.407-.405-.713.493-.215.724-.117.653-.233 1.31-.352 1.967-.48-.582-1.065.172-.597 1.066-1.448 2.405 1.377-10.148 1.96-10.364.303 1.062-.123 2.02-.606 2.952zM113.615 5.02c.314.917.56 1.857.752 2.812-.517-.245-1.028-.494-1.533-.754.256-.687.513-1.374.78-2.057zm-2.89 5.915c1.222.364 2.17 1.27 3.37 1.7-.315 1.604-.947 3.127-1.886 4.486-1.147-1.97-2.34-3.92-3.682-5.772.706-.22 1.434-.706 2.198-.413zm-42.22-7.332c.17.51.383 1.014.475 1.548-.267.44-.624.818-.95 1.22.034-.94.126-1.884.475-2.767zM69.61 14.81c-.475-.993-1.212-1.978-1.166-3.12 1.012-1.322 2.33-2.395 3.642-3.432.518.32 1.04.647 1.56.97-1.518 1.745-2.607 3.783-4.036 5.583zm1.165 7.772c.3-3.204 1.664-6.26 3.77-8.74 1.483-2.28 3.81-3.835 6.114-5.253 1.242-.763 2.67-1.156 4.133-1.256 4.017-.757 8.307-1.22 12.264.082 2.718.787 5.215 2.24 7.35 4.036.572.378.464 1.065.498 1.648 3.037.998 3.743 4.463 4.705 7.05 1.054 4.712.636 9.587.353 14.36-1.967.945-3.953 1.858-6.016 2.594-.625-1.85-1.062-3.755-1.273-5.69-2.22.56-4.386 1.334-6.663 1.653.327 1.898.483 3.806.44 5.73-2.72.18-5.454.516-8.184.24-1.514-.17-3.037-.252-4.555-.394.208-2.223.764-4.396 1.024-6.612-2.292.06-4.59.06-6.846-.39-.23 1.858-.925 3.607-1.416 5.403-1.993-.75-3.937-1.648-6.053-2.02-.45-4.14-.347-8.33.355-12.44zm31.872 15.023c-1.518.504-3.09.812-4.67 1.06-.233-1.517-.383-3.043-.69-4.547 1.423-.405 2.84-.843 4.29-1.162.338 1.552.676 3.108 1.07 4.648zm-19.33-4.355c-.28 1.733-.66 3.45-.913 5.186-1.538-.267-3.06-.608-4.57-.973.18-1.463.552-2.892 1.024-4.288 1.486.063 2.97.026 4.458.075zm9.557 41.122c-4.738-.17-9.61-1.014-14.27.234-1.165.293-2.24.824-3.36 1.24-.918-1.603-2.583-2.82-2.947-4.693-1.265-5.56-1.12-11.335-.19-16.934.416-2.12 1.54-4.073 3.123-5.585 1.32-1.4 3.125-2.205 4.754-3.204 2.42-1.41 5.004-2.83 7.894-2.947 1.933-.167 3.797.442 5.7.635 3.112.316 5.94 1.712 8.66 3.126 1.502.728 2.415 2.153 3.404 3.404 1.487 1.934 1.614 4.466 1.568 6.79.088 3.294-.338 6.644-1.588 9.728-1.468 3.61-2.346 7.468-4.374 10.85-2.22-2.054-5.402-2.647-8.374-2.644zm27.072-7.44c.327 4.184 1.38 8.313 1.216 12.53-.02 1.467-.594 2.844-.928 4.255-3.788.208-7.48-1.117-11.268-.668-1.764.233-3.535.433-5.318.397-.357-1.78-1.07-3.458-1.867-5.087.718-.695 1.343-1.493 1.665-2.436 1.115-3.13 2.177-6.275 3.29-9.404 1.008-2.625 1.81-5.377 1.713-8.202-.077-2.406.395-4.897-.448-7.225-.636-1.99-2.005-3.705-3.67-5-2.427-1.472-4.873-3.08-7.74-3.61-1.88-.345-3.777-.58-5.648-.95-3.94-.65-7.883.467-11.513 1.875-3.966 1.618-7.93 3.85-10.22 7.503-1.552 3.69-1.637 7.76-1.403 11.685.568 3.512 1.795 6.887 3.244 10.144.668 1.28 1.727 2.33 2.425 3.6.306.504-.104.984-.37 1.407-.984 1.452-1.813 3-2.848 4.426-2.174-.083-4.35.048-6.517-.105-1.288.012-1.43-1.503-1.633-2.427-.327-3.185-.87-6.344-1.285-9.52-.28-6.67.19-13.343.445-20.01.092-2.778.567-5.53 1.23-8.23.52-2.59 1.177-5.186 2.362-7.577 3.01 1.17 6.134 2.05 9.124 3.272 2.43.946 5.06 1.206 7.56 1.933 1.676.51 3.448.33 5.173.55 3.182.498 6.418.182 9.604-.088 2.462.088 4.748-.918 7.06-1.59 2.906-.794 5.505-2.332 8.212-3.586.974-.446 1.852-1.063 2.76-1.62 1.925 5.154 2.07 10.7 3.233 16.026.644 2.888.85 5.843 1.3 8.762.383 2.985.908 5.96 1.06 8.97zm-2.514-25.816c.567-.1.743 2.462 0 0zM84.064 14.735c-1.856-.827-4.042-.66-5.973-.23-1.453.602-2.837 1.407-4 2.45-2.2 2.21-2.375 5.78-1.076 8.462 1.703 1.98 3.957 3.954 6.81 3.846 2.18-.055 4.86-.337 6.18-2.26 1.798-2.11 2.776-5.106 1.79-7.76-.86-1.738-1.882-3.598-3.73-4.508zm2.3 10.344c-.364.842-1.45.91-2.204 1.273-2.343.968-5.08.52-7.262-.62-1.852-1-1.684-3.308-1.844-5.065-.21-2.662 2.254-4.547 4.616-5.31 1.326-.356 2.826-.26 4.03.428 1.863 1.025 2.983 2.956 3.542 4.9.203 1.505-.284 3.02-.878 4.393zM105.906 17.448c-1.687-1.55-4.202-1.463-6.357-1.293-1.97.494-3.843 1.69-5.054 3.27-1.035 2.93-1.53 6.428.272 9.194.602 1.25 2.08 1.674 3.367 1.923 2.794.46 6.015.45 8.277-1.448 1.373-1.374 2.933-2.9 2.995-4.942.617-2.755-1.492-5.065-3.5-6.705zm2.365 7.547c-.366 1.697-2.118 2.496-3.564 3.21-3.13 1.216-7.68-.03-8.615-3.45-.187-1.86-.313-3.962.833-5.577.928-.902 2.12-1.59 3.397-1.912 4.413-.925 9.014 3.46 7.95 7.73zM80.53 18.727c-1.155.26-.933 1.69-1.197 2.554.49.15.985.298 1.48.447.19-.595.38-1.188.567-1.783.46.052.916.105 1.38.16.376.668.72 1.355 1.074 2.038.41-.363.816-.73 1.227-1.095-.42-.657-.828-1.325-1.345-1.916-.732-.956-2.166-.633-3.186-.403zM104.372 20.02c-1.088-1.087-2.72-.267-3.516.736-.79.772-.498 1.92-.383 2.877.917-.835 1.454-1.945 2.094-2.974 1.1.523 1.426 1.622 1.545 2.72.3-.044.893-.137 1.192-.18.024-1.126.142-2.44-.932-3.18zM121.388 44.396c.184.634.318.1 0 0zM121.895 48.587c.866.023.398-1.278-.066-1.26.015.417.038.84.065 1.26z"/>
    </defs>
    
    <g class="monster-trends">
        <g class="monster-trends__left-arm">
            <use xlink:href="#monster-trends_left-arm-background" fill="pink" stroke="blue"/>
            <use xlink:href="#monster-trends_left-arm-detail" fill="blue" />
            <animateTransform attributeName="transform" dur="2s" 
                type="rotate" values="0 60 30;-45 60 35;0 60 30" repeatCount="indefinite">
            </animateTransform>           
       
        </g>
        <g class="monster-trends__right-arm">
            <use xlink:href="#monster-trends_right-arm-background" fill="yellow" stroke="blue"/>
            <use xlink:href="#monster-trends_right-arm-detail" fill="blue" />
            <animateTransform attributeName="transform" dur="2s" 
                type="rotate" values="0 120 30;45 120 35;0 120 30" repeatCount="indefinite">
            </animateTransform>  
        </g>
        <g class="monster-trends__body">
            <use xlink:href="#monster-trends_body-background" fill="red" stroke="blue"/>
            <use xlink:href="#monster-trends_body-detail" fill="blue" />
        </g>
        
        <use xlink:href="#right-arm-path" stroke="green" />
        
    </g>


</svg>
