<svg class="monsters" viewBox="0 0 178 109" style="background-color:#ffffff00"
    xmlns="http://www.w3.org/2000/svg" width="178" height="109">
    <g class="monster-workshops">
        <g class="monster-workshops__left-hand">
            <path
                d="M52.568 43.558l-1.07.53-3.32-2.63-1.3-3.224c0-1.683.496-3.43.336-5.1-.058-1.532-1.43-2.683-1.343-4.236-.042-1.833.185-3.663.078-5.497-.526.356-1.023.747-1.5 1.162l-2.247 1.78-.132-.193c-.353-1.028-.732-2.045-1.188-3.03-.97 1.447-1.776 2.996-2.776 4.426l-1.31-1.295-.47-1.11-1.182.018c-.628 1.763-.913 3.616-1.342 5.427-.536 1.328-1.69 2.41-1.785 3.916-.62 4.853.487 10.032 3.503 13.967 2.302 3.592 6.655 4.873 10.45 6.314 2.12.526 4.35.083 6.516.168C52.567 56.565 53 47 53 47s-.295-4.446-.432-3.442zM35.693 27.346l.026.09-.1.35.073-.44z"
                stroke="#000" fill="#fff"/>
            <path
                d="M47.574 47.272c.2-.59.213-1.218.266-1.83-.632.508-1.244 1.047-1.83 1.61.518.087 1.04.164 1.564.22zM46.648 50.468l1.303-.163.128-1.3-1.11-.753c-.112.736-.223 1.476-.32 2.216zM48.18 52.216l1.022-.253.487-1.275-1.52.282.01 1.246zM50.664 51.337c-.84.158-.642 1.605.26 1.275.83-.166.643-1.62-.26-1.275zM52.464 44.32l-.555.14c-1.647-.937-3.326-2.026-4.422-3.587-1.34-2.418-.028-5.173-.274-7.738-.058-1.533-1.43-2.684-1.343-4.237-.042-1.833.185-3.663.078-5.497-1.38.932-2.558 2.112-3.682 3.325-.41-1.223-.845-2.435-1.386-3.606-1.123 1.676-2.026 3.49-3.267 5.095-.43-1.026-.85-2.053-1.29-3.075l-1.18.018c-.63 1.763-.914 3.616-1.343 5.427-.536 1.328-1.69 2.41-1.785 3.916-.62 4.853.487 10.032 3.503 13.967 2.302 3.592 6.655 4.873 10.45 6.314 2.12.526 4.35.083 6.516.168C52.567 56.565 53 47 53 47s-.366-3.936-.536-2.68zM44.362 26.16c.1 1.212.153 2.435.22 3.653l-1.75-.706c.434-1.018.936-2.01 1.53-2.946zm-3.958-.12c.254 1.037.52 2.072.806 3.104l-2.78.574c.593-1.257 1.22-2.503 1.974-3.678zm-4.712 1.308c.266.917.526 1.83.773 2.75l-1.153.58c.052-1.118.187-2.226.38-3.33zm16.614 25.677c-1.945.057-3.892.023-5.836-.004-.14-.666-.28-1.33-.435-1.984-.487.32-.974.645-1.452.984-1.472-.827-3.287-.703-4.696-1.662-3.88-2.57-5.942-7.11-6.478-11.586-.122-1.907-.252-3.936.56-5.723 1.326-1.668 3.7-1.6 5.603-2.12 2.104-.574 4.455-.13 6.004 1.44.855 2.58-.57 5.273.053 7.88.59 2.448 3.418 3.473 3.91 5.972.922-.052 1.844-.086 2.77-.1l-.043 1.815c-1.102-.168-2.337-.936-3.277.024.844 1.04 2.205 1.39 3.34 2.012l-.024 3.05z"
            />
        </g>
        <g class="monster-workshops__right-hand">
            <path
                d="M113.47 44.392L113 44.3v12.115l.114-.223c4.023-.358 8.218-.053 12.006-1.666 2.51-.785 4.58-2.423 6.69-3.907 1.293-.972 2.08-2.414 3.012-3.694 2.6-3.477 3.06-7.93 3.74-12.065.386-1.81-.203-3.61-.936-5.247-.985-2.125-.767-4.534-1.42-6.75-.265-.735-.37-1.887-1.4-1.863-.776 1.396-1.312 2.914-2.147 4.28-.88-1.99-1.86-4.05-3.828-5.21l-.228.46-.076-.102-1.993 3.943c-.822-1.55-1.44-3.436-3.044-4.218l-.275-.38-.06.24c-.166-.06-.343-.11-.53-.148-.483 1.623-.575 3.314-.706 4.99l-.007.073-.26 1.028c-.317.778-.837 1.487-1.113 2.282.163 2.732.728 5.42.99 8.147.148 2.146-.136 4.567-1.815 6.115-1.672 1.536-4.03 1.913-6.246 1.892z"
                stroke="#000" fill="#fff"/>
            <path
                d="M134.798 24.066l.85 2.19-1.594-.44c.24-.583.492-1.166.744-1.75zm-5.918-1.718c.632.673 1.245 1.36 1.843 2.063l-2.027.368c.05-.812.11-1.624.184-2.43zm-5.454-.167c.65.928 1.202 1.916 1.722 2.918l-1.727.15c-.028-1.023-.038-2.045.006-3.067zm-3.71 20.32c-1.79 1.645-4.368 1.96-6.716 1.88v2.01c.383 1.124 1.418 1.773 2.424 2.385l.97-1.42-1.57-.955c1.975-.706 4.084-1.27 5.744-2.597 1.048-1.056 1.83-2.393 2.27-3.808.448-3.47-.435-6.915-.643-10.368-.193-1.27.71-2.537 2.022-2.684 2.408-.297 4.895-1.233 7.293-.36 2.828.565 4.247 3.368 5.358 5.718.66 3.263-.46 6.527-1.284 9.658-.734 2.862-2.442 5.393-4.49 7.5-2.648 2.235-5.916 3.62-9.184 4.704-.28-1.15-.51-2.31-.585-3.49l-1.283.276c.23 1.093.4 2.197.512 3.31l-2.587.153c.13-.854.256-1.704.376-2.555-.492.258-.985.515-1.472.784l.42 1.947-1.92.018c-.115-.744-.242-1.49-.372-2.23-.713.684-1.358 1.43-1.998 2.18V56.2c4.058-.373 8.296-.046 12.12-1.674 2.51-.785 4.58-2.423 6.69-3.907 1.293-.972 2.08-2.414 3.012-3.694 2.6-3.477 3.06-7.93 3.74-12.065.386-1.81-.203-3.61-.936-5.247-.985-2.125-.767-4.534-1.42-6.75-.265-.735-.37-1.887-1.4-1.863-.776 1.396-1.312 2.914-2.147 4.28-.88-1.99-1.86-4.05-3.828-5.21-.787 1.542-1.38 3.17-2.037 4.766-1.115-1.858-1.69-4.48-4.17-4.972-.483 1.623-.575 3.314-.706 4.99-.072 1.262-.98 2.23-1.38 3.383.163 2.732.728 5.42.99 8.147.148 2.146-.136 4.567-1.815 6.115z"
            />
        </g>
        <g class="monster-workshops__body">
            <path
                d="M115 56.415V44.3l-.062-.013c.01-3.464-.75-6.878-.744-10.343-.55-6.49-2.558-12.828-5.477-18.646-2.058-2.932-4.63-5.443-7.41-7.71v.12c-1.344-1.066-2.728-2.08-4.124-3.06C94.515 3.146 91.96.6 88.635 1.054c-3.606.316-7.148 1.138-10.618 2.13-2.544.698-4.416 2.675-6.796 3.712-.93.42-1.808.914-2.64 1.467l-.478.237-.12.177c-4.126 2.97-7.05 7.45-9.262 11.95-1.01 1.928-1.845 3.924-2.55 5.963l-2.92 12.27-.25 1.595V59.75c1.022 6.37 3.265 12.516 5.407 18.593.51 1.608 1.076 3.243 1.124 4.947-.183 2.064-1.96 3.644-2.012 5.75.03.822-.265 1.983.733 2.36 1.392.988 2.85-.2 4.022-.93-.153 1.164-.777 2.502.04 3.563 1.123.624 2.52.8 3.75.405.86-.77 1.345-1.844 1.907-2.827.788.53 1.58 1.06 2.392 1.572.994-.64 2.268-1.19 2.645-2.412.168-.385.26-.778.298-1.177l.11-.16v-2.817c4.75.133 9.5-.015 14.255-.102 4.544-.014 9.098.1 13.637-.2v2.473c.1.09.21.17.325.237.09.168.208.302.34.42v-.252c.508.216 1.092.33 1.584.53.377 1.432 1.15 2.97 2.733 3.348 1.586-.15 2.807-1.266 4-2.202 1.737.763 3.778 1.7 5.652.797 1.964-.717 2.157-3.196 1.685-4.92-1.063-1.676-3.26-2.823-3.216-5.028-.075-5.433-.616-10.895.084-16.312.3-2.822.25-5.666.26-8.503l.246-.487zm1.04 34.032l-.027.128-.182.01.21-.138z"
                stroke="#000" fill="#fff"/>
            <path d="M79.454 50.03v4.903H90.91V50.03H79.453z" fill="#b22d00"/>
            <path
                d="M69.99 17.068c-2.727.578-4.802 2.512-6.71 4.394-1.737 1.582-1.636 4.255-1.09 6.343.797 3.114 3.476 5.264 6.183 6.772 1.288.76 2.867.703 4.305.554 2.352-.357 4.22-1.9 6.222-3.036 2.017-1.046 2.525-3.558 2.597-5.613-.38-2.572-.94-5.376-2.89-7.272-2.265-2.06-5.634-3.005-8.617-2.14zm9.22 12.924c-1.31 1.405-3.152 2.13-4.88 2.89-1.676.764-3.75.66-5.252-.44-2.11-1.328-3.016-3.782-3.538-6.084-.438-1.543-.348-3.258.385-4.695 1.304-1.553 3.307-2.26 5.05-3.196 3.06-1.02 6.578.98 8.036 3.683 1.04 2.426 1.883 5.498.198 7.843zM101.053 32.58c-2.345.875-5.13 1.41-7.335-.114-3.056-1.304-3.987-4.91-3.692-7.91.164-1.37.25-2.955 1.37-3.935 1.067-.93 2.39-1.546 3.726-1.99 1.926-.354 3.92-.154 5.855.038.354.05.682.143.994.26v-1.69c-2.42-.487-4.946-.777-7.38-.318-4.208.577-7.64 4.437-7.774 8.62-.13 2.67.13 5.742 2.22 7.685 1.27 1.338 3.18 1.653 4.918 1.994 2.715.326 5.52-.144 8.017-1.25V32.25c-.292.132-.596.247-.916.33zM100.918 21.008c-1.63-.244-3.6.2-4.42 1.762-.908 1.133-.377 2.576.217 3.707l1.124-.444c.265-1.117.58-2.22.97-3.3.59.014 1.173.03 1.762.034.48 1.01.933 2.03 1.4 3.048v-4.173c-.295-.272-.642-.492-1.053-.634zM75.02 21.768c-2.095-1.873-5.542.797-5.04 3.29-.14.932 1.212.95 1.753 1.414.332-.926.603-1.877.91-2.808.537.014 1.074.033 1.614.062.483.835.328 3.023 1.77 2.316 1.41-1.29.518-3.524-1.008-4.274zM96.165 56.854c-2.626.573-5.29 1.166-7.998 1.074-2.978-.08-6.004.19-8.92-.572-3.972-.898-8.46-1.52-11.394-4.604-1.898-1.864-2.15-4.696-2.168-7.203.038-2.156 1.342-4.143 3.306-5.07 3.06-1.88 6.753-1.76 10.19-2.31 4.272-.345 8.582-.79 12.853-.192 2.105.125 4.18.76 6.3.502 1.198-.126 2.444-.132 3.638.086V37.01c-2.644-.328-5.434-.037-8.06-.355-3.923-.482-7.88-.51-11.824-.34-3.814.622-7.748.497-11.493 1.477-2.88 1.146-6.14 3.22-6.333 6.62-.226 3.406-.02 7.317 2.444 9.957 2.567 2.316 5.984 3.425 9.31 4.18 2.886.635 5.725 1.828 8.74 1.533 4.592.013 9.307-.278 13.583-2.098 1.305-.486 2.52-1.147 3.634-1.948v-2.275c-1.585 1.568-3.63 2.603-5.805 3.092zM93.37 40.944c-3.75-.4-7.553-.405-11.294.067-1.718.254-3.456.354-5.17.632-2.292.535-4.45 1.858-5.806 3.782-.99 1.892-1.607 4.394-.17 6.233 2.15 2.76 5.532 4.514 9.017 4.886 5.295.52 10.494-1.023 15.37-2.904 1.437-.74 2.73-1.75 3.932-2.82 1.61-1.465 2.663-3.896 1.785-6.003-1.81-2.344-4.773-3.51-7.665-3.873zm-2.056 1.57c.01.928.02 1.854.015 2.786-1.093.066-2.188.105-3.28.134-.158-1.046-.273-2.096-.375-3.148 1.212.053 2.423.144 3.64.23zM79.006 45.75c-.26-.896-.506-1.8-.743-2.702 1.294-.104 2.587-.186 3.88-.244 0 .773-.01 1.548-.02 2.327-1.032.236-2.074.433-3.118.618zm2.144 9.305l-.164-2.225c.79-.292 1.587-.574 2.384-.85.323.99.63 1.982.91 2.99-1.046.038-2.088.066-3.13.085zm4.473-.434c-.222-1.02-.463-2.036-.695-3.05 2.327-.203 4.61.278 6.628 1.434-1.863.89-3.833 1.595-5.933 1.615zM71.26 66.602c-1.482-1.3-3.626-2.14-5.59-1.696-1.008.51-1.917 1.267-2.568 2.193-1.776 3.472-1.288 7.616.204 11.093 1.264 3.473 6.83 4.58 9.06 1.444 1.22-2.01 1.91-4.452 1.336-6.783-.522-2.16-.908-4.533-2.443-6.252zM69.79 79.938c-2.543-1.89-4.4-4.858-4.262-8.087.13-1.828-.285-4.192 1.41-5.444 1.747.163 3.37 1.19 4.13 2.775.91 1.87 1.328 3.96 1.445 6.024.106 1.958-1.246 3.598-2.723 4.734zM79.18 68.674c-1.636.507-1.878 2.43-2.225 3.85-.314 2.293-.213 4.724.675 6.888.54 1.476 2.19 2.273 3.7 2.316 1.466-.334 2.84-1.462 3.18-2.966 1.32-3.415-.445-7.116-2.858-9.567-.594-.73-1.637-.688-2.47-.52zm4.054 9.793c-.193.773-1.076.812-1.684 1.103-1.695-2.77-2.91-6.448-1.087-9.446 2.235 2.033 4.08 5.338 2.77 8.343zM53.25 38.96L53 40.555V59.75c1.022 6.37 3.265 12.516 5.407 18.593.51 1.608 1.076 3.243 1.124 4.947-.183 2.064-1.96 3.644-2.012 5.75.03.822-.265 1.983.733 2.36 1.392.988 2.85-.2 4.022-.93-.153 1.164-.777 2.502.04 3.563 1.123.624 2.52.8 3.75.405.86-.77 1.345-1.844 1.907-2.827.788.53 1.58 1.06 2.392 1.572.994-.64 2.268-1.19 2.645-2.412.588-1.346.25-2.808-.063-4.17 4.908.158 9.813.005 14.726-.086 4.544-.014 9.098.1 13.637-.2v2.473c.1.09.21.17.325.237.09.168.208.302.34.42v-.252c.508.216 1.092.33 1.584.53.377 1.432 1.15 2.97 2.733 3.348 1.586-.15 2.807-1.266 4-2.202 1.737.763 3.778 1.7 5.652.797 1.964-.717 2.157-3.196 1.685-4.92-1.063-1.676-3.26-2.823-3.216-5.028-.075-5.433-.616-10.895.084-16.312.323-3.047.24-6.12.264-9.18L115 56.2v-1.645l-.092.108c-.178-2.903-.11-5.812-.02-8.71.027.153.065.298.112.437v-2.01h-.062c.024-3.496-.75-6.94-.744-10.436-.55-6.49-2.558-12.828-5.477-18.646-2.058-2.932-4.63-5.443-7.41-7.71v.12c-1.344-1.066-2.728-2.08-4.124-3.06C94.515 3.146 91.96.6 88.635 1.054c-3.606.316-7.148 1.138-10.618 2.13-2.544.698-4.416 2.675-6.796 3.712-5.897 2.67-9.75 8.234-12.5 13.83-1.01 1.93-1.845 3.926-2.55 5.965l-2.92 12.27zm45.43 45.997c-6.405.09-12.825-.12-19.21.363-2.94.176-5.846-.34-8.775-.41.574 2.034 1.955 4.026 1.13 6.208-1.705.817-3.06-1.462-4.72-.926-.74.826-.87 1.955-1.13 2.975-.883-.1-1.767-.2-2.64-.32.047-1.77.424-3.753-.942-5.172-.96.884-1.8 3.472-3.46 2.326-.34-3.35 3.132-5.668 2.75-9.055-.772-3.887-1.515-7.78-2.162-11.688-.216-4.428-1.337-8.75-1.635-13.168-.435-3.044-.54-6.11-.778-9.166-.072-3.85-.365-7.76.55-11.54 1.04-5.66 2.728-11.29 5.725-16.248.72-2.895 2.852-5.1 4.393-7.58 1.028-1.853 2.93-2.932 4.73-3.935 1.9-1.027 3.687-2.38 5.86-2.784 4.054-.983 8.16-2.637 12.4-2.026 2.045.937 3.84 2.342 5.863 3.335 1.87 1.23 3.663 2.592 5.343 4.077v-.06c1.906 1.753 3.65 3.671 5.153 5.772 3.35 5.764 4.92 12.355 5.59 18.92.096 2.276.395 4.535.58 6.803.216 7.3.017 14.607-.098 21.91-.164 3.953-1.177 7.904-.545 11.868.357 2.694.057 5.427.39 8.115.575 1.715 2.636 2.365 3.33 4.012.493.993-.168 2.03-.357 3.013-2.123.135-3.98-.892-5.733-1.944-1.212 1.36-2.558 2.997-4.62 2.577-.246-1.376-.453-2.752-.65-4.133-.894.302-1.796.598-2.71.828.195-1.324.45-2.633.552-3.966-.518-.022-1.032 0-1.545.037v.71c-.876.085-1.75.205-2.627.274zM105.912 22.064c-.903-1.834-1.94-3.98-4.016-4.705l-.59-.12v1.69c2.585.974 3.75 4.084 4.225 6.616-.19 2.667-1.684 5.56-4.223 6.706v1.717c.445-.2.885-.41 1.308-.648 3.456-2.413 5.26-7.38 3.297-11.258zM108.1 46.36c.795-2.755.326-6.242-2.324-7.866-1.396-.882-2.907-1.29-4.47-1.485v1.556c.98.178 1.925.505 2.77 1.066 1.015.677 2.55 1.274 2.597 2.68.61 4.392-1.996 8.557-5.246 11.337l-.12.112v2.275c3.26-2.34 5.644-5.868 6.792-9.677z"
            />
        </g>
    </g>
    <path
        d="M0 109l178-.135v-46.2l-56.286 12.068-11.804.277-3.11-6.323s-7.462-2.525-7.305-2.95c.157-.428-6.804.425-6.944 0-.14-.428-6.216 4.804-6.216 4.804l4.65 5.564-3.72 1.855-4.65 1.853-6.512-4.636-7.763-3.453-5.578.195s-.147-5.63-.614-5.45c-.466.178-9.33-.206-9.873-.31-.542-.104-2.01-3.7-2.01-3.7l3.512-2.118-10.233.927L0 67.534V109z"
        fill="#7b5996"/>
    <g opacity=".702">
        <path
            d="M130.194 55.255l-2.222.366v2.32l-2.344.124-1.11 1.1-3.95-.61-3.995-.193.1 2.044 4.266-.508 3.207.733 2.22-2.2 2.346.123-.247-2.32 1.728-.978zM115.566 63.683l-.023.785-.645.893-2.418 1.94 5.757 3.76 5.066 1.71.806.91s-3.225.342-3.685.342c-.46 0-6.333-.114-6.333-.114l-3.914.114-1.843 2.507-1.497 2.506-5.296-1.48-11.86-1.255-4.835 2.167-3.11 3.19-2.647 3.077-4.145-1.14L66.08 82l-7.715-4.787 1.267-2.507v-3.874l-4.376.113-3.224-2.28-4.145.457 2.648-2.165 3.685.114 2.82-1.31-6.965.114-7.6 4.73-10.19.797 9.846.343 5.297-1.082 3.857-.684 2.994 1.88 3.914.798-.403 2.963-.634 1.653-1.842.113-13.126 4.673s9.556-1.88 9.384-1.823c-.173.057-.46 1.367-.46 1.367l-2.994 1.54-.288 3.588-1.497 1.653 2.533 2.394-3.34.627h4.722l-3.05-2.963 1.38-1.367.633-3.646 2.707-1.14 1.21-2.507 2.935-1.368 2.88 1.025 5.928 4.73 2.994.227 5.296.456 3.282 1.026 3.972 3.19-.633 1.425-3.8.227-1.84.4-2.534 2.05-3.11.228-4.086.456-8.405 7.977s8.117-6.55 8.405-6.666c.288-.113 2.878-.397 3.05-.397.174 0 4.146.113 4.146.113l2.015-1.766 2.65-1.14-.174.912.52 1.197 3.74.967.173 2.394 9.383 3.875-.748 2.564 2.072.968-1.497-1.254.806-2.45-9.326-3.99.058-2.506-2.936-.57-1.267-.968.46-1.31s1.843-.058 2.073-.058c.23 0 2.303-.854 2.303-.854l1.67.57 3.052 1.14 1.957 1.88 1.496.97 2.187.17 1.497 1.48-.978-2.05-2.706-.172-.806-.854-1.785-1.71-2.878-1.88-1.267-1.367-1.21-1.71-1.38-1.937 2.763-3.76s3.57-2.508 3.742-2.565c.173-.057 4.72-.912 4.72-.912l14.03 2.088 1.39 1.41.552 1.506-.55 1.635s-3.368 2.146-3.627 2.21c-.26.064-2.85.866-2.85.866l-1.1 1.857-1.587.257-1.295.962 2.655 2.66-2.007-2.212s.42-.705.55-.737c.13-.032 2.202-.32 2.33-.32.13 0 .034-.93.034-.93s.842-.802.94-.802c.096 0 2.265-.767 2.395-.8.13-.03 1.52.386 1.52.386l-.096 2.018 1.068 1.89 3.367 1.09 1.684 4.2-.584-4.52s-2.072-1.442-2.267-1.474c-.195-.032-2.202-1.602-2.202-1.602s.81-2.18.906-2.21c.098-.033 3.01-4.103 3.14-4.103.13 0 2.656.384 2.754.384.097 0 3.723 1.698 3.723 1.698l.746 1.762 1.036 1.602 3.14 1.955s-1.748-1.378-1.878-1.442c-.13-.064-1.52-1.858-1.52-1.858l-1.005-3.013s-3.11-1.12-3.24-1.12c-.13 0-3.172-1.732-3.27-1.732-.096 0-2.132-2.763-2.132-2.848 0-.086.576-1.453.576-1.453l1.15-1.623 1.7-.798 4.087.597 4.002.114 1.583 1.227 1.727.512-.172 1.28.978 1.51 1.785.485 2.504.114 2.562 2.307s-1.785-2.535-1.93-2.62c-.143-.086-2.705-.257-2.907-.286-.2-.027-1.21-.427-1.295-.483-.086-.057-1.036-.912-1.036-.912s.115-1.168.057-1.31c-.058-.143-1.44-1.055-1.44-1.055l-1.18-.996 2.504-.456s1.238 1.595 1.21 1.68c-.03.086 1.9.343 1.985.343.086 0 4.116-.682 4.202-.712.086-.028 9.73.114 9.73.114l-8.645-1.22s-1.84-1.03-1.945-1.083l-3.28-1.505-6.395-2.32-5.704-2.005-1.68-1.003s1.787-1.135 1.894-1.213c.106-.08 1.972-.66 2.158-.686.187-.027 4.05.158 4.05.158s1.84-.29 1.947-.29c.107 0 2.852.343 2.852.343l1.093.764.64 1.08s1.12.898 1.2.95c.08.053 1.758.45 1.758.45l.906-.422.854-.528 1.546.343 3.692.343-1.727-.366-2.098-.61-1.974-.245-.617.854-2.098-.244-1.234-1.344-.863-1.098-1.974-.733-1.604-.367 2.345-.122 2.344.61 2.716.367.74-.733-.74-1.465 1.234-.123 2.22.123 2.84.244-3.333-.734-1.464-.107-1.868-.138-.246 1.1.245 1.343-3.578-.49-2.59-1.22-2.47.366-1.356 1.467-2.714-.367-2.63-.917zM75.866 82.227l-4.72.57s-.807.456-.46.456c.344 0 8.634 2.506 8.634 2.506l4.145-5.7-.69-1.936-1.613-1.71-4.03-1.936-6.677-3.077-2.303-1.025s-1.612-.34-2.073-.113c-.46.227-3.34 1.367-3.34 1.367l-2.993 2.734-1.727 3.077s1.15-1.025 1.727-1.14c.575-.112 4.835-4.1 4.835-4.1l1.958-1.028s1.497.23 1.957.23c.46 0 9.096 4.67 9.096 4.67l2.533 1.37-2.993 4.9-1.267-.115zM78.222 78.244l-2.34 4.674-.645-.508 2.985-4.166zM75.86 78.42l-.556 1.323-.4-.044.957-1.28zM74.212 78.663l-.49.617.245-1.3.245.683zM71.673 78.376l-.58-.044"/>
        <path
            d="M62.92 75.973l.088.75-1.024-.154.935-.597zM51.537 71.92c-.063.085-1.397 1.34-1.397 1.34l.17 1.32s4.91-2.785 4.887-2.847c-.02-.063.17-3.853.17-3.853s.38-5.926.465-5.926c.084 0-2.095 3.455-2.158 3.56-.064.104-2.137 6.407-2.137 6.407zM61.664 66.518l-.76 3.77.02-3.748.74-.022zM59.802 66.728l-.254 3.31-.02-3.456.274.146zM58.512 65.746l-.34 3.372V65.6l.34.146zM47.56 66.77c-.043.063-.424 4.272-.424 4.272l-.232-4.356.655.083zM54.746 66.917l-.34 3.6-.337-3.705.74.02-.064.085zM53.16 68.322l-.043-2.64.278.05.08.014-.316 2.576zM52.207 66.79l-.53.022.212 2.26.317-2.28zM108.382 75.545l-.683-5.196s-.972-.962-1.08-1.034c-.108-.07-5.25-2.526-5.79-2.67-.54-.14-2.804-.747-3.343-.817-.54-.073-4.136.283-4.136.283s-.107 2.1-.107 2.207c0 .107.792 1.78.97 1.957.18.178 4.964 3.666 5.108 3.737.144.07 5.107 1.958 5.36 2.136.25.178 1.437 1.28 1.688 1.352.252.07 1.223.285 1.223.39 0 .108-1.186.535-1.186.535l-4.315-.64s-6.833-1.068-6.94-1.104c-.11-.035 2.337-.675 2.337-.675l.43-1.14-.323-.783-1.438-.32s-3.057-2.918-3.272-3.06c-.216-.143-.755-1.175-.755-1.175s-.217-2.456-.217-2.563c0-.107.36-1.39.36-1.494 0-.107.862-.712 1.006-.748.143-.036 3.02-.178 3.45-.178.433 0 4.28 1.103 4.604 1.175.324.07 4.53 1.46 5.07 1.673.54.212 1.69 1.067 1.834 1.245.144.178 1.26 1.388 1.547 1.886.287.5.216 1.957.18 2.314-.037.356.035 1.317.035 1.317l-1.618 1.388zM90.295 75.936s.395-.748.395-.855c0-.105-1.007-1.244-1.115-1.244-.108 0-1.438-2.242-1.76-2.42-.325-.178 0-1.494 0-1.743 0-.25 1.653-1.745 1.94-2.03.288-.284 1.942-1.814 2.122-1.957.18-.142.61-.498.79-.57.18-.07-.215 2.812-.25 2.955-.037.143-.576-.64-.576-.64s-1.078.392-1.222.498c-.144.107-2.12 1.922-2.12 1.922s.178.854.178 1.068c0 .214.36.89.504.96.144.072 3.344-2.42 3.344-2.42l-2.733 2.848s.36.89.576 1.103c.216.213.684.57.684.57l2.337-1.07-1.51 1.53.108.393h1.87c.467-.035 1.618-.178 1.618-.178.18-.07 1.906-1.032 1.906-1.032l-.792 1.317s.43.32.647.32c.216 0 .9-.57.9-.57.18 0 .682 1.246.682 1.353 0 .107-1.15.498-1.33.498-.18 0-7.192-.604-7.192-.604zM98.26 68.552s.52 1.196.346 1.253c-.173.058-.69.115-.69-.057 0-.17-.058-.684-.058-.684l.402-.512zM125.453 69.198l-.46.15-.27-.378.73-.152.076.342-.078.038zM126.52 61.562l.288.2s-.058.255-.058.34c0 .086-.115.23-.115.23s-.46 0-.547-.087c-.086-.085.058-.427.058-.427l.374-.256zM128.628 72.25z"
        />
    </g>
</svg>
